<?xml version="1.0" encoding="UTF-8"?><!DOCTYPE svg PUBLIC "-//W3C//DTD SVG 1.1//EN" "http://www.w3.org/Graphics/SVG/1.1/DTD/svg11.dtd"><svg xmlns="http://www.w3.org/2000/svg" xmlns:xlink="http://www.w3.org/1999/xlink"><defs><clipPath id="clip0"><path d="M0 0h15v16H0z"/></clipPath></defs><symbol id="icon-bold_hogar" viewBox="0 0 44 44"><path d="M33.534 43.094H10.466c-2.077 0-3.268-1.254-3.268-3.44V25.44h-5.12c-.23 0-.454-.07-.645-.203a1.22 1.22 0 01-.432-.544 1.292 1.292 0 01-.076-.703c.04-.238.146-.457.304-.632L21.18 1.289c.109-.121.24-.217.386-.283a1.121 1.121 0 01.924 0c.146.067.278.164.387.285l5.291 5.869V4.345c0-.326.124-.64.343-.871.22-.231.518-.36.829-.36h6.29c.155-.001.307.03.45.093.142.061.27.152.38.267.108.114.195.25.254.4.059.15.09.31.09.471v12.393l5.969 6.621c.157.175.263.395.303.632.04.237.014.482-.076.703-.09.222-.241.41-.432.543a1.13 1.13 0 01-.645.203h-5.12v14.214c0 2.186-1.191 3.44-3.268 3.44z"/></symbol><symbol id="icon-bold_movil" viewBox="0 0 29 44"><path d="M26.768 2.688C25.603 1.489 23.883.906 21.512.906H7.3C2.682.906.344 3.28.344 7.96v28.082c0 4.746 2.276 7.052 6.956 7.052h14.212c4.681 0 6.956-2.306 6.956-7.052V7.959c0-2.37-.556-4.094-1.7-5.271zM16.175 37.447c-.42.427-1.025.654-1.759.654-.733 0-1.341-.226-1.758-.654-.417-.428-.62-1.007-.62-1.736 0-1.496.889-2.389 2.378-2.389 1.49 0 2.376.893 2.376 2.39 0 .728-.207 1.313-.617 1.735z"/></symbol><symbol id="icon-bold_movistar_total" viewBox="0 0 49 33"><path d="M48.053 16.473c-.015 2.27-.161 4.653-.721 7a3.884 3.884 0 01-1.057 1.856c-.68.675-1.539.993-2.543.777-.998-.217-1.509-.886-1.73-1.746-.303-1.173-.072-2.358.05-3.53.183-1.78.336-3.561.233-5.35-.051-.939-.188-1.893-.96-2.587-1.036-.929-2.456-.799-3.684.268-1.12.967-1.868 2.162-2.487 3.439-1.25 2.586-2.086 5.301-2.976 7.995-.484 1.452-1.029 2.883-2.14 4.048-3.878 4.05-11.133 3.684-14.42-.808-1.835-2.507-3.404-5.165-5.1-7.756-.369-.56-.763-1.103-1.266-1.579-.545-.508-1.149-.74-1.936-.55-.83.202-1.116.785-1.25 1.45-.196 1.007-.04 2 .188 2.992.495 2.171 1.438 4.223 2.042 6.36.189.661.31 1.328.269 2.014-.053.785-.405 1.434-1.216 1.752-.925.368-1.85.289-2.657-.294-.783-.567-1.216-1.375-1.564-2.19-1.79-4.147-3.076-8.4-2.866-12.915.141-2.962.69-5.857 2.182-8.534C3.656 6.402 5.401 4.76 8.21 4.352c1.91-.279 3.614.125 5.107 1.259 1.744 1.325 2.97 3.026 4.225 4.71.948 1.26 1.714 2.64 2.825 3.795 1.067 1.116 2.339 1.949 4.057 1.877 1.912-.08 3.074-1.136 3.794-2.645 1.25-2.631 2.268-5.348 3.578-7.963 1.007-2.015 2.478-3.66 4.735-4.554 3.388-1.343 6.507-.318 8.365 2.69 1.518 2.466 2.273 5.166 2.726 7.946.259 1.621.366 3.25.431 5.006z"/></symbol><symbol id="icon-call_center" viewBox="0 0 36 36"><path d="M28.308 36c-1.589 0-3.4-.39-5.357-1.172-3.999-1.595-8.373-4.699-12.65-8.976l-.008-.009-.136-.135-.008-.008c-4.278-4.278-7.382-8.652-8.977-12.65-1.525-3.826-1.563-7.094-.106-9.206a.739.739 0 01.034-.046l.022-.031c.176-.244.712-.988 1.27-1.52C3.982.727 5.604-.03 7.213 0c1.55.03 3.083.79 4.554 2.26a9.084 9.084 0 011.44 1.83c.79 1.274 1.076 2.587.853 3.904-.224 1.316-.96 2.605-2.19 3.835a9.45 9.45 0 01-.907.808c-.12.216-.049.896.907 2.29 1.105 1.61 2.95 3.514 4.242 4.805l.153.154c1.292 1.292 3.196 3.137 4.807 4.242 1.392.956 2.073 1.025 2.288.907.25-.32.52-.623.81-.908 1.229-1.23 2.519-1.966 3.834-2.189 1.316-.223 2.63.064 3.903.853.67.4 1.285.883 1.83 1.44 1.471 1.47 2.232 3.003 2.261 4.554.03 1.608-.725 3.228-2.246 4.822-.533.558-1.277 1.094-1.52 1.27l-.031.022a.859.859 0 01-.045.034c-1.032.71-2.338 1.066-3.85 1.066zM11.755 24.406c4.08 4.084 8.214 7.027 11.955 8.518 3.109 1.24 5.754 1.362 7.264.335l.059-.044c.554-.399.97-.743 1.237-1.025 1.134-1.186 1.699-2.32 1.68-3.367-.02-1.018-.565-2.046-1.662-3.144a7.029 7.029 0 00-1.421-1.124l-.03-.017c-.85-.53-1.665-.72-2.49-.58-.887.151-1.806.695-2.728 1.618a7.69 7.69 0 00-.722.82c-.034.042-.07.082-.11.119-.439.404-1.221.82-2.463.504-.703-.177-1.492-.57-2.411-1.202-1.751-1.2-3.747-3.133-5.097-4.483l-.153-.153c-1.348-1.348-3.28-3.345-4.482-5.095-.631-.923-1.025-1.71-1.202-2.412-.315-1.242.102-2.024.504-2.462a1.03 1.03 0 01.12-.11c.29-.221.563-.463.82-.722.921-.923 1.466-1.84 1.617-2.729.14-.825-.051-1.64-.58-2.49l-.018-.03a7.033 7.033 0 00-1.123-1.42C9.22 2.613 8.192 2.07 7.176 2.05c-1.048-.017-2.181.545-3.368 1.678-.28.269-.623.684-1.023 1.237l-.044.06c-1.025 1.51-.905 4.156.335 7.264 1.492 3.74 4.437 7.875 8.516 11.955l.072.07.021.022.07.07z"/></symbol><symbol id="icon-candado" viewBox="0 0 50 65"><path d="M46.4 26c-1.4-1.2-3.2-2-5.3-2.3V13.5C41.1 8.1 37.1 0 26 0 13.2 0 9.8 8.8 9.8 13.5v10c-2.9.2-5.1 1-6.8 2.5-2 1.8-3 4.4-3 7.9v20.7c0 3.4 1 6.1 3 7.9 2 1.6 4.8 2.5 8.4 2.5h26.7c3.6 0 6.4-.9 8.3-2.6 2-1.8 3.1-4.4 3.1-7.9V33.9c0-3.5-1.1-6.1-3.1-7.9zM26 2c10.8 0 13.1 8.3 13.1 11.5v10H11.8v-9.9C11.8 9.5 14.7 2 26 2zm21.4 52.5c-.1 5.7-3.1 8.5-9.3 8.5H11.3c-3 0-5.3-.7-6.9-2C2.8 59.6 2 57.4 2 54.5V35.3v-1.5c0-2.9.8-5.1 2.4-6.4 1.5-1.4 3.8-2 6.9-2H38c6.2 0 9.2 2.8 9.3 8.5v20.6z"/></symbol><symbol id="icon-celular_lupa" viewBox="0 0 63 64"><style>.st0{fill:#019bf2}</style><path class="st0" d="M41.1 51c-1.6 0-2.7.9-2.7 2.7 0 .9.2 1.5.7 2 .5.5 1.2.7 2 .7s1.5-.2 2-.7c.4-.4.7-1.1.7-2 0-1.9-1-2.7-2.7-2.7z"/><path class="st0" d="M60.1 2.4C58.4.8 56 0 52.7 0H29.6c-3.3 0-5.7.8-7.4 2.5-1.6 1.6-2.4 3.9-2.4 7.1-6.6 1.7-11.4 7.6-11.4 14.7 0 3.7 1.3 7.1 3.5 9.7L1.3 44.6c-.4.4-.4.9 0 1.3s.9.4 1.3 0l10.6-10.6c1.8 1.7 4.1 3 6.6 3.6v15.2c0 3.4.8 5.8 2.4 7.4 1.6 1.6 4 2.4 7.4 2.4h23.1c3.3 0 5.8-.8 7.4-2.4 1.6-1.6 2.4-4 2.4-7.4V9.8c0-3.3-.8-5.8-2.4-7.4zM9.8 24.3c0-7.6 6.2-13.8 13.8-13.8 7.6 0 13.8 6.2 13.8 13.8S31.1 38 23.5 38c-7.6 0-13.7-6.1-13.7-13.7zm50.8 29.9c0 5.7-2.3 8-8 8h-23c-5.7 0-8-2.3-8-8V39.3c.6.1 1.3.1 1.9.1 8.4 0 15.2-6.8 15.2-15.2C38.7 15.8 31.9 9 23.5 9c-.6 0-1.3.1-1.9.1.1-2.5.7-4.3 1.9-5.5 1.3-1.3 3.3-1.9 6.1-1.9h23.1c2.8 0 4.8.6 6.1 1.9C60 5 60.6 7 60.6 9.8v44.4z"/></symbol><symbol id="icon-clock" viewBox="0 0 16 17"><path d="M8 16.543c-2.538 0-4.515-.664-5.874-1.974C.716 13.209 0 11.182 0 8.543s.715-4.666 2.126-6.026C3.485 1.207 5.462.543 8 .543s4.515.664 5.874 1.974C15.284 3.877 16 5.904 16 8.543s-.715 4.666-2.126 6.026c-1.359 1.31-3.336 1.974-5.874 1.974zm0-15.09c-2.295 0-4.059.579-5.242 1.72C1.532 4.354.91 6.16.91 8.543s.622 4.188 1.848 5.371c1.183 1.14 2.947 1.72 5.242 1.72s4.059-.58 5.242-1.72c1.226-1.181 1.848-2.988 1.848-5.371 0-2.383-.622-4.188-1.848-5.371C12.06 2.032 10.295 1.453 8 1.453z"/><path fill-rule="evenodd" clip-rule="evenodd" d="M8 4.5a.5.5 0 01.5.5v4.675l2.183.86a.5.5 0 01-.366.93l-2.28-.898a.77.77 0 01-.537-.742V5a.5.5 0 01.5-.5z"/></symbol><symbol id="icon-corazon" viewBox="0 0 65 64"><path d="M32.03 64c-.129 0-.246 0-.356-.008h-.049a6.831 6.831 0 01-1.198-.174 10.556 10.556 0 01-3.925-1.776c-1.163-.837-2.681-2.277-3.715-3.346-5.273-5.45-8.354-9.313-12.208-15.322C5.76 35.876 2.453 28.44.75 21.274-1.039 13.739.396 7.514 4.79 3.736 7.347 1.538 10.84.223 14.638.026c4.038-.207 8.229.828 12.13 2.996 1.373.762 2.79 1.584 4.33 2.497a2.028 2.028 0 001.969.008 177.831 177.831 0 014.342-2.506C41.306.854 45.5-.18 49.538.026c3.794.195 7.288 1.512 9.846 3.71 4.392 3.774 5.825 10.002 4.035 17.539-1.7 7.156-5.011 14.591-9.831 22.097-3.835 5.97-6.902 9.825-12.117 15.225a.934.934 0 01-.081.097c-1.034 1.068-2.551 2.507-3.716 3.345a10.555 10.555 0 01-3.93 1.776c-.392.093-.791.15-1.193.171h-.044c-.13.007-.266.01-.418.009l-.058.005zM15.657 1.83c-.31 0-.618.008-.925.024-3.393.174-6.501 1.336-8.751 3.27-1.95 1.674-3.23 3.9-3.807 6.615-.568 2.667-.449 5.732.354 9.111 1.654 6.964 4.88 14.21 9.584 21.533 3.831 5.962 6.747 9.615 11.987 15.04.978 1.011 2.404 2.366 3.469 3.133a8.72 8.72 0 003.253 1.474l.026.005c.292.069.59.11.89.126h.036c.086.004.19.006.31.005h.012c.116 0 .217 0 .308-.005H32.44c.3-.015.598-.057.89-.126l.026-.005a8.716 8.716 0 003.254-1.474c1.033-.744 2.403-2.038 3.377-3.038a.916.916 0 01.08-.092c5.243-5.428 8.155-9.08 11.986-15.043 4.71-7.333 7.938-14.578 9.59-21.533.803-3.379.923-6.446.357-9.112-.576-2.714-1.855-4.94-3.803-6.613-2.25-1.935-5.358-3.097-8.751-3.27-3.697-.192-7.553.766-11.15 2.768a170.62 170.62 0 00-4.305 2.483l-.015.01a3.85 3.85 0 01-3.795-.013l-.01-.007a159.037 159.037 0 00-4.289-2.474c-3.3-1.835-6.814-2.792-10.225-2.792z"/></symbol><symbol id="icon-drop_down" viewBox="0 0 16 9"><path fill-rule="evenodd" clip-rule="evenodd" d="M.288.297A1 1 0 011.703.288l6.386 6.307L14.298.472a1 1 0 011.404 1.424L8.791 8.712a1 1 0 01-1.405 0l-7.089-7A1 1 0 01.288.297z"/></symbol><symbol id="icon-nat_close" viewBox="0 0 18 18"><path d="M1 1l16 16M17 1L1 17" stroke="#019BF2" stroke-width="2" stroke-linecap="round"/></symbol><symbol id="icon-plan_mobile" viewBox="0 0 25 25"><path d="M16.446 24.896H8.464c-1.347 0-2.329-.324-3.002-.99-.678-.673-1.008-1.66-1.008-3.02V4.91c0-1.323.328-2.3 1.004-2.983.685-.693 1.667-1.03 3.006-1.03h7.982c1.351 0 2.334.33 3.01 1.008.674.678.998 1.658.998 3.004v15.977c0 1.36-.33 2.347-1.008 3.02-.672.667-1.653.991-3 .991zM8.464 2.262c-1.877 0-2.644.766-2.644 2.646v15.977c0 1.929.716 2.646 2.644 2.646h7.982c1.927 0 2.644-.717 2.644-2.646V4.908c0-.967-.197-1.634-.601-2.04-.405-.407-1.074-.606-2.043-.606H8.464z"/><path d="M12.455 19.673c-.614 0-1.012.323-1.012 1.017 0 .334.093.58.256.749.177.181.437.269.756.269.32 0 .58-.088.756-.269.164-.168.256-.415.256-.749-.002-.693-.399-1.017-1.012-1.017z"/><path fill-rule="evenodd" clip-rule="evenodd" d="M12.266 20.514a.53.53 0 00-.023.176.54.54 0 00.03.19.52.52 0 00.183.028.52.52 0 00.182-.028.538.538 0 00.029-.189.53.53 0 00-.03-.19.41.41 0 00-.182-.028.42.42 0 00-.184.028.12.12 0 00-.005.012zm0-.01h-.001zm.377 0h-.001a.02.02 0 01.001 0zm.824.186c0 .334-.092.581-.256.749-.176.181-.437.269-.756.269s-.58-.088-.756-.269c-.163-.168-.256-.415-.256-.749 0-.694.398-1.017 1.012-1.017.613 0 1.01.324 1.012 1.017zm-1.194-.193h.001z"/><path d="M12.455 22.05c-.417 0-.763-.128-1-.371s-.353-.572-.353-.987c0-.85.506-1.359 1.353-1.359.848 0 1.352.508 1.352 1.359 0 .415-.119.747-.353.987-.234.24-.582.372-.999.372zm0-2.034c-.463 0-.67.209-.67.676 0 .23.053.402.158.51.106.108.28.166.512.166.232 0 .405-.056.512-.166.107-.11.158-.28.158-.51 0-.467-.205-.678-.67-.678v.002z"/><path fill-rule="evenodd" clip-rule="evenodd" d="M13.12 20.816c-.016.169-.066.297-.153.386l-.001.001c-.107.11-.28.165-.51.165-.232 0-.406-.058-.512-.165v-.001c-.106-.108-.16-.28-.16-.51 0-.467.208-.676.671-.676v-.002c.024 0 .048 0 .07.002.416.02.6.233.6.676 0 .043-.001.085-.005.124zm-.665-1.483c.847 0 1.352.508 1.352 1.358v.001c0 .414-.118.745-.35.985l-.003.002c-.234.24-.582.372-.999.372-.416 0-.762-.128-.999-.371v-.001c-.238-.243-.354-.572-.354-.987 0-.532.198-.93.553-1.153.213-.134.483-.206.8-.206z"/></symbol><symbol id="icon-plan_telefono" viewBox="0 0 25 25"><path d="M19.326 24.668c-1.06 0-2.266-.261-3.572-.782-2.665-1.063-5.581-3.132-8.432-5.984l-.006-.006-.09-.09-.006-.006C4.368 14.95 2.3 12.034 1.235 9.367.218 6.817.194 4.638 1.165 3.23a.49.49 0 01.022-.03l.015-.021c.118-.163.475-.659.846-1.014C3.11 1.152 4.191.647 5.263.668c1.034.02 2.056.526 3.037 1.507.37.364.693.774.96 1.22.525.849.717 1.724.568 2.602-.15.878-.64 1.737-1.46 2.557-.19.193-.392.373-.605.54-.08.143-.032.596.605 1.525.737 1.074 1.967 2.343 2.828 3.204l.102.102c.862.862 2.13 2.092 3.204 2.828.929.638 1.383.684 1.526.605a6.28 6.28 0 01.54-.605c.82-.82 1.68-1.31 2.556-1.46.877-.148 1.754.043 2.602.569.447.266.857.589 1.22.96.981.98 1.488 2.002 1.507 3.036.02 1.072-.483 2.152-1.497 3.215-.355.372-.85.73-1.014.847l-.02.014a.496.496 0 01-.03.023c-.688.474-1.558.71-2.566.71zM8.29 16.938c2.72 2.723 5.476 4.685 7.97 5.679 2.072.827 3.836.907 4.842.223l.04-.03c.37-.265.647-.495.825-.682.755-.791 1.132-1.547 1.119-2.245-.013-.679-.376-1.364-1.107-2.096a4.691 4.691 0 00-.948-.75l-.02-.01c-.567-.354-1.11-.48-1.66-.387-.591.1-1.204.463-1.819 1.078-.173.17-.334.353-.481.547a.673.673 0 01-.074.079c-.292.27-.813.546-1.64.336-.47-.118-.996-.38-1.609-.8-1.167-.802-2.498-2.09-3.397-2.99l-.103-.102c-.899-.899-2.186-2.23-2.988-3.397-.42-.615-.683-1.139-.801-1.608-.21-.827.068-1.35.336-1.64a.683.683 0 01.08-.074c.193-.148.376-.308.546-.482.615-.615.978-1.227 1.079-1.819.093-.55-.035-1.093-.387-1.66l-.012-.02a4.686 4.686 0 00-.749-.947c-.732-.73-1.417-1.094-2.095-1.107-.698-.01-1.454.364-2.245 1.12a6.292 6.292 0 00-.682.824l-.03.04c-.683 1.007-.603 2.77.224 4.843.994 2.494 2.958 5.25 5.677 7.97l.048.047.014.014.047.046z"/></symbol><symbol id="icon-plan_tv" viewBox="0 0 25 25"><path d="M20.26 19.29l-15.61-.011c-1.365 0-2.424-.38-3.146-1.13-.697-.722-1.05-1.753-1.05-3.064V7.772c0-2.682 1.49-4.16 4.195-4.16l15.61.011c2.705 0 4.195 1.478 4.195 4.16v7.312c0 1.312-.353 2.342-1.048 3.064-.724.75-1.783 1.13-3.146 1.13zM4.648 4.978c-.984 0-1.713.235-2.167.699-.44.449-.662 1.154-.662 2.094v7.313c0 1.93.9 2.828 2.83 2.828l15.608.01c1.93 0 2.829-.898 2.829-2.827V7.782c0-.94-.223-1.645-.663-2.095-.453-.463-1.183-.699-2.167-.699L4.65 4.98zM15.444 21.985l-5.993-.01a.683.683 0 110-1.367l5.993.01a.683.683 0 110 1.367z"/></symbol><symbol id="icon-plan_wifi" viewBox="0 0 25 25"><path d="M1.137 8.583a.679.679 0 01-.483-.198.686.686 0 010-.97l.02-.023a16.835 16.835 0 015.314-3.574 16.652 16.652 0 016.536-1.322c2.249 0 4.436.439 6.497 1.305a16.672 16.672 0 015.262 3.509c.27.267.274.698.007.969a.683.683 0 01-.969.006 15.35 15.35 0 00-10.798-4.42c-2.084 0-4.1.408-6 1.213A15.427 15.427 0 001.64 8.36l-.02.02a.682.682 0 01-.483.202z"/><path d="M4.157 12.325a.682.682 0 01-.486-1.164l.024-.024a12.535 12.535 0 013.923-2.646 12.44 12.44 0 014.902-.996 12.453 12.453 0 018.744 3.567.686.686 0 01-.959.979 11.06 11.06 0 00-3.464-2.307 11.044 11.044 0 00-4.32-.87c-1.517 0-2.986.298-4.365.887a11.164 11.164 0 00-3.5 2.359l-.013.013a.684.684 0 01-.486.202zM7.176 16.064a.686.686 0 01-.483-1.17 8.144 8.144 0 012.55-1.737 8.174 8.174 0 013.27-.674 8.22 8.22 0 015.728 2.317.686.686 0 01-.955.983 6.785 6.785 0 00-2.102-1.393 6.795 6.795 0 00-2.67-.541 6.814 6.814 0 00-4.851 2.01.66.66 0 01-.487.205zM12.47 22.496c-.82 0-1.47-.226-1.935-.674-.483-.466-.73-1.137-.73-1.99 0-.852.247-1.523.73-1.988.466-.449 1.116-.675 1.934-.675.818 0 1.469.226 1.934.675.483.465.73 1.136.73 1.989 0 .852-.247 1.523-.73 1.989-.462.448-1.112.674-1.934.674zm0-3.957c-.918 0-1.295.376-1.295 1.294 0 .917.377 1.294 1.294 1.294.918 0 1.294-.377 1.294-1.294 0-.47-.102-.805-.311-1.003-.199-.195-.527-.291-.983-.291z"/></symbol><symbol id="icon-return" viewBox="0 0 10.11 18"><path d="M9.81.27a1 1 0 010 1.42l-7.4 7.39 7.19 7.19a1.022 1.022 0 11-1.45 1.44L.26 9.81a1 1 0 01-.29-.71 1 1 0 01.29-.71L8.4.27a1 1 0 011.41 0z" fill-rule="evenodd"/></symbol><symbol id="icon-social_blogger" viewBox="0 0 95.938 95.938"><path d="M95.329 59.861c-.031-7.134-.053-12.289-3.562-16.824-3.975-5.134-10.106-6.004-15.076-6.152.837-3.587 1.079-7.564.692-11.863C77.277 10.705 66.624.414 51.839.006L51.626 0 29.012.018l-.243-.001c-8.795 0-15.747 2.626-20.664 7.804C5.062 11.024 1.02 16.619.592 25.666l-.018 36.48c-.044.689.025 1.385.016 2.1 0 10.379 1.661 17.85 6.848 23.371 5.183 5.521 12.847 8.32 22.776 8.32.215 0 .432-.001.649-.004h34.629c8.858-.074 16.343-2.998 21.646-8.455 5.293-5.447 8.143-13.208 8.24-22.441-.001 0-.043-3.717-.049-5.176zM30.846 19.457l19.322-.023c4.554.072 8.188 4.151 8.114 8.705-.072 4.509-3.749 7.799-8.242 7.799l-19.455.008a8.245 8.245 0 01-8.113-8.375c.072-4.554 3.814-8.158 8.374-8.114zm36.318 54.275H28.521a8.246 8.246 0 010-16.492h38.644a8.246 8.246 0 018.246 8.246 8.246 8.246 0 01-8.247 8.246z"/></symbol><symbol id="icon-social_facebook" viewBox="0 0 11 19"><path d="M6.994 18.928H3.712v-8.475H.97v-3.32h2.742V4.686c0-1.398.373-2.475 1.121-3.233C5.581.696 6.578.317 7.824.317c.998 0 1.814.044 2.451.131v2.928l-1.703.043c-.61 0-1.024.131-1.246.393-.222.263-.332.656-.332 1.18v2.14h3.157l-.416 3.32H6.994v8.476z"/></symbol><symbol id="icon-social_flickr" viewBox="0 0 24 24"><path d="M5 2C3.348 2 2 3.348 2 5v14c0 1.652 1.348 3 3 3h14c1.652 0 3-1.348 3-3V5c0-1.652-1.348-3-3-3zm0 2h14c.55 0 1 .45 1 1v14c0 .55-.45 1-1 1H5c-.55 0-1-.45-1-1V5c0-.55.45-1 1-1zm3 5a3 3 0 10.002 6.002A3 3 0 008 9zm8 0a3 3 0 10.002 6.002A3 3 0 0016 9z"/></symbol><symbol id="icon-social_googleplus" viewBox="0 0 24 24"><path d="M7 11v2.4h3.97c-.16 1.029-1.2 3.02-3.97 3.02-2.39 0-4.34-1.979-4.34-4.42 0-2.44 1.95-4.42 4.34-4.42 1.36 0 2.27.58 2.79 1.08l1.9-1.83C10.47 5.69 8.89 5 7 5c-3.87 0-7 3.13-7 7s3.13 7 7 7c4.04 0 6.721-2.84 6.721-6.84 0-.46-.051-.81-.111-1.16H7zm0 0l17 2h-3v3h-2v-3h-3v-2h3V8h2v3h3v2z" fill-rule="evenodd" clip-rule="evenodd"/></symbol><symbol id="icon-social_instagram" viewBox="0 0 19 20"><path d="M17.054 5.176V3.297c0-.32-.16-.48-.48-.48h-1.83c-.32 0-.48.16-.48.48v1.879c0 .291.16.437.48.437h1.83c.32 0 .48-.146.48-.437zM2.627 17.758h13.947c.32 0 .48-.16.48-.48V9.37h-1.961c.058.35.087.655.087.917 0 1.544-.552 2.87-1.656 3.976-1.076 1.078-2.383 1.616-3.923 1.616s-2.862-.538-3.966-1.616c-1.075-1.107-1.613-2.432-1.613-3.976 0-.32.03-.626.088-.917H2.192v7.907c0 .32.145.48.435.48zM12.26 7.666c-.727-.728-1.613-1.092-2.66-1.092-1.016 0-1.887.364-2.614 1.092-.726.729-1.09 1.602-1.09 2.621 0 1.02.364 1.893 1.09 2.622C7.713 13.637 8.584 14 9.6 14c1.046 0 1.932-.364 2.659-1.092.726-.729 1.09-1.602 1.09-2.622 0-1.02-.364-1.892-1.09-2.62zM17.054.982c.523 0 .959.19 1.307.568.378.35.567.772.567 1.267v14.94c0 .496-.19.918-.567 1.268a1.705 1.705 0 01-1.307.568H2.192c-.523 0-.974-.19-1.352-.568a1.728 1.728 0 01-.523-1.267V2.817c0-.495.175-.917.523-1.267A1.844 1.844 0 012.192.982h14.862z"/></symbol><symbol id="icon-social_line" viewBox="0 0 24 24"><path d="M24 10.304C24 4.935 18.617.566 12 .566c-6.616 0-12 4.369-12 9.738 0 4.814 4.269 8.846 10.036 9.608.391.084.922.258 1.057.592.121.303.079.778.039 1.085l-.171 1.027c-.053.303-.242 1.186 1.039.647 1.281-.54 6.911-4.069 9.428-6.967C23.167 14.389 24 12.453 24 10.304zM5.012 7.709c.129 0 .234.105.234.234v4.153h2.287c.129 0 .233.104.233.233v.842a.233.233 0 01-.233.234H4.17a.232.232 0 01-.161-.065l-.001-.001-.002-.002-.001-.001-.003-.003a.234.234 0 01-.065-.161V7.943c0-.129.104-.234.233-.234h.842zm14.992 0c.129 0 .233.105.233.234v.842a.233.233 0 01-.233.234h-2.287v.883h2.287c.129 0 .233.105.233.234v.842a.233.233 0 01-.233.234h-2.287v.884h2.287c.129 0 .233.105.233.233v.842a.233.233 0 01-.233.234h-3.363a.234.234 0 01-.162-.065l-.003-.004-.003-.003a.235.235 0 01-.066-.161V7.943c0-.062.025-.119.065-.161l.004-.004.003-.003a.235.235 0 01.162-.066h3.363zM9.562 7.71c.129 0 .234.104.234.233v5.229a.234.234 0 01-.234.233H8.72a.234.234 0 01-.234-.233V7.943c0-.129.105-.233.234-.233h.842zm2.127 0h.008l.012.001.013.001.01.001.013.003.008.003.014.004.008.003.013.006.007.003.013.007.007.004.012.009.006.004.013.011.004.004.014.014.002.002.018.023 2.396 3.236V7.943c0-.129.105-.233.234-.233h.841c.13 0 .234.104.234.233v5.229a.233.233 0 01-.234.233h-.841l-.06-.008-.004-.001-.015-.005-.007-.003-.012-.004-.011-.006-.007-.003-.014-.009-.002-.002-.06-.058-2.399-3.24v3.106a.233.233 0 01-.234.233h-.841a.234.234 0 01-.234-.233V7.943c0-.129.105-.233.234-.233h.841z"/></symbol><symbol id="icon-social_linkedin" viewBox="0 0 24 24"><path d="M4.98 3.5C4.98 4.881 3.87 6 2.5 6S.02 4.881.02 3.5C.02 2.12 1.13 1 2.5 1s2.48 1.12 2.48 2.5zM5 8H0v16h5V8zm7.982 0H8.014v16h4.969v-8.399c0-4.67 6.029-5.052 6.029 0V24H24V13.869c0-7.88-8.922-7.593-11.018-3.714V8z"/></symbol><symbol id="icon-social_medium" viewBox="0 0 24 24"><path d="M2.846 6.887a.928.928 0 00-.303-.784l-2.24-2.7V3h6.958l5.378 11.795L17.367 3H24v.403L22.084 5.24a.561.561 0 00-.213.538v13.498a.56.56 0 00.213.537l1.871 1.837v.403h-9.412v-.403l1.939-1.882c.19-.19.19-.246.19-.537V8.321l-5.389 13.688h-.728L4.28 8.321v9.174c-.052.385.076.774.347 1.052l2.521 3.058v.404H0v-.404l2.521-3.058c.27-.279.39-.67.325-1.052V6.887z"/></symbol><symbol id="icon-social_meneame" viewBox="0 0 97.386 97.386"><path d="M49.481 45.874c-2.066 1.283-4.135 2.01-6.312 2.467-3.193.671-6.396.671-9.586.059-2.756-.528-5.017-2.016-6.841-4.089-3.615-4.108-6.22-8.751-6.991-14.257-1.057-7.544 1.588-13.655 7.375-18.45 4.152-3.44 9.083-5.107 14.32-6.037 8.217-1.457 15.988.141 23.509 3.394 3.861 1.671 7.593 3.647 11.581 5.026.88.305 1.771.58 2.697.711 1.671.234 3.04-.332 4.141-1.574 1.438-1.625 1.944-3.58 1.94-5.707.404-.023.488.293.617.531 1.227 2.254.877 5.921-.788 7.83-1.742 2-4.059 2.356-6.521 2.071-2.798-.323-5.457-1.14-8.008-2.355-4.793-2.285-9.655-4.394-14.863-5.573-6.52-1.477-12.988-1.217-19.317.885-9.215 3.061-14.059 12.217-11.55 21.614 1.447 5.423 4.497 9.694 9.261 12.714 2.061 1.307 4.333 1.717 6.73 1.686 2.426-.035 4.79-.508 7.159-.956.41-.079.81-.181 1.447.01z"/><path d="M59.172 92.101c-.442-.148-1.268.346-1.399-.271-.129-.603.733-.801 1.234-1.011 3.056-1.271 6.137-2.485 9.194-3.754 1.903-.79 3.76-1.683 5.469-2.849a8.8 8.8 0 001.603-1.388c.756-.843.938-1.732.497-2.839-2.325-5.822-4.921-11.54-6.959-17.478-1.643-4.788-2.946-9.643-3.293-14.735-.408-6.007 1.672-10.678 6.856-13.893 2.443-1.518 5.067-2.649 7.694-3.785 3.248-1.404 6.463-2.844 9.312-5.02 4.264-3.252 5.664-7.613 5.299-12.758-.164-2.316-.551-4.591-1.08-6.848-.061-.256-.409-.634.052-.832.415-.18.636.143.815.472 1.388 2.523 2.473 5.141 2.812 8.04.655 5.577-1.785 9.83-5.644 13.51-2.462 2.348-5.485 3.801-8.467 5.316-2.693 1.369-5.473 2.58-8.01 4.243-2.766 1.812-5.058 4.019-5.819 7.388-.62 2.74-.117 5.451.435 8.134 1.214 5.899 3.603 11.394 5.962 16.893 1.22 2.837 2.52 5.641 3.49 8.574 1.565 4.729.259 8.376-3.95 11.032-3.027 1.908-6.42 2.743-9.9 3.298-2.036.323-4.093.424-6.203.561zM18.435 35.377c-.075.492-.354.866-.621 1.247-4.5 6.421-8.355 13.191-11.262 20.491-2.025 5.087-2.511 10.282-1.174 15.597 1.655 6.575 6.033 10.635 12.205 13.022 4.475 1.73 9.14 2.562 13.873 3.119 6.577.778 13.18 1.297 19.771 1.937.634.061 1.261.236 1.88.403.298.08.683.202.642.605-.05.467-.482.327-.774.351-4.267.347-8.54.54-12.821.604-6.023.09-12.067.132-18.007-.869-9.651-1.626-17.131-6.43-20.761-15.91-1.946-5.087-1.701-10.386-.134-15.552 2.351-7.75 5.908-14.862 11.699-20.686 1.5-1.507 3.19-2.803 4.844-4.135.161-.127.31-.33.64-.224z"/><path d="M34.902 70.655c6.825-1.119 13.637-1.732 20.499-.911 3.269.393 3.89 1.062 3.966 4.359.123 5.218-.606 10.335-2.086 15.341-.247.833-.553 1.653-1.07 2.365-.204.281-.431.635-.85.488-.37-.129-.32-.521-.336-.834-.1-2.23.265-4.429.471-6.639.295-3.165.825-6.315.533-9.521-.093-1.014-.558-1.631-1.458-2.063-2.661-1.275-5.516-1.69-8.401-1.974-3.526-.343-7.072-.31-10.605-.521-.223-.013-.441-.059-.663-.09z"/></symbol><symbol id="icon-social_messenger" viewBox="0 0 20 21"><path d="M10.287.982C5.148.982.982 4.977.982 9.905c0 2.809 1.353 5.313 3.467 6.95v3.402l3.169-1.8a9.686 9.686 0 002.67.373c5.138 0 9.305-3.995 9.305-8.923 0-4.929-4.167-8.925-9.306-8.925zM11.212 13l-2.37-2.618L4.22 13l5.086-5.592 2.428 2.618L16.3 7.407l-5.087 5.592z"/></symbol><symbol id="icon-social_movplay" viewBox="0 0 120 120"><path d="M8.88 3.74c-1.966.016-5.591.932-7.23 7.209-.729 2.748-1.002 5.598-.383 9.007.565 3.139 1.585 5.853 2.259 7.329.237.509.6 1.052.874 1.374.801.95 2.15.882 2.714.628.62-.289 1.33-.967 1.057-2.511-.128-.746-.474-1.85-.674-2.46-.62-1.866-1.44-4.139-1.512-5.733-.091-2.155.82-2.443 1.42-2.562 1.02-.204 1.877.831 2.678 2.137.966 1.561 2.623 4.31 3.97 6.43 1.221 1.9 3.48 3.935 7.087 3.8 3.697-.136 6.411-1.46 7.814-5.582 1.056-3.087 1.767-5.394 2.914-7.752 1.33-2.714 3.078-4.173 4.572-3.732 1.384.407 1.73 1.663 1.749 3.512.018 1.628-.183 3.426-.346 4.75-.055.474-.164 1.441-.128 1.984.091 1.052.565 2.104 1.84 2.273 1.348.187 2.44-.83 2.878-2.052.163-.475.31-1.222.4-1.748.401-2.629.51-4.41.328-7.107-.218-3.156-.874-6.04-2.022-8.533C40.03 2.026 38.261.499 35.966.364c-2.532-.153-5.428 1.408-6.94 4.444-1.402 2.782-2.513 5.649-3.205 7.108-.693 1.476-1.694 2.392-3.26 2.544-1.913.187-3.553-1.102-4.755-2.934-1.056-1.595-3.133-4.648-4.244-5.666-1.002-.95-2.204-2.155-4.681-2.12z"/><path fill-rule="evenodd" clip-rule="evenodd" d="M70.84 119.388c28.397 0 48.59-11.772 48.59-45.85 0-25.322-11.358-45.85-48.59-45.85-38.81 0-49.222 22.926-49.222 45.85 0 22.925 9.465 45.85 49.222 45.85zM51.37 51.754c-1.867 10.396-1.981 31.748-.006 42.86.499 2.807 3.556 4.175 6.323 3.004 11.39-4.817 31.341-15.362 39.75-21.346 2.274-1.62 1.991-4.437-.342-5.98-9.272-6.138-27.36-16.414-39.64-21.428-2.682-1.095-5.599.186-6.085 2.89z"/></symbol><symbol id="icon-social_periscope" viewBox="0 0 113.583 145.426"><path d="M113.583 56.791c0 42.229-45.414 88.635-56.791 88.635C45.416 145.426 0 99.02 0 56.791 0 25.426 25.426 0 56.792 0c31.367 0 56.791 25.426 56.791 56.791z"/><path d="M56.792 22.521c-2.731 0-5.384.327-7.931.928 4.619 2.265 7.807 6.998 7.807 12.489 0 7.686-6.231 13.917-13.917 13.917-7.399 0-13.433-5.779-13.874-13.067a34.29 34.29 0 00-6.543 20.191c0 19.031 15.427 34.458 34.458 34.458S91.25 76.01 91.25 56.979 75.823 22.521 56.792 22.521z"/></symbol><symbol id="icon-social_pinterest" viewBox="0 0 24 24"><path d="M12 0C5.373 0 0 5.372 0 12c0 5.084 3.163 9.426 7.627 11.174-.105-.949-.2-2.405.042-3.441.218-.937 1.407-5.965 1.407-5.965s-.359-.719-.359-1.782c0-1.668.967-2.914 2.171-2.914 1.023 0 1.518.769 1.518 1.69 0 1.029-.655 2.568-.994 3.995-.283 1.194.599 2.169 1.777 2.169 2.133 0 3.772-2.249 3.772-5.495 0-2.873-2.064-4.882-5.012-4.882-3.414 0-5.418 2.561-5.418 5.207 0 1.031.397 2.138.893 2.738a.36.36 0 01.083.345l-.333 1.36c-.053.22-.174.267-.402.161-1.499-.698-2.436-2.889-2.436-4.649 0-3.785 2.75-7.262 7.929-7.262 4.163 0 7.398 2.967 7.398 6.931 0 4.136-2.607 7.464-6.227 7.464-1.216 0-2.359-.631-2.75-1.378l-.748 2.853c-.271 1.043-1.002 2.35-1.492 3.146C9.57 23.812 10.763 24 12 24c6.627 0 12-5.373 12-12 0-6.628-5.373-12-12-12z" fill-rule="evenodd" clip-rule="evenodd"/></symbol><symbol id="icon-social_qzone" viewBox="0 0 97.683 97.683"><path d="M97.578 37.764a2.014 2.014 0 00-1.732-1.365l-31.396-2.91-13.633-30.02a2.024 2.024 0 00-1.873-1.237c-.82 0-1.561.489-1.871 1.237L33.021 32.831 1.833 36.399A2.015 2.015 0 00.095 37.78a1.97 1.97 0 00.613 2.114l23.047 21.137-5.672 31.939a1.977 1.977 0 00.784 2.062 2.047 2.047 0 002.235.09l28.05-16.117 27.632 16.326c.688.202 1.558.17 2.214-.285a1.97 1.97 0 00.815-2.025l-4.175-23.645c1.103-.512 4.345-1.941 6.05-3.902-2.78 1.099-3.826 1.389-6.607 1.914v-.006c-18.563 3.566-47.045.541-48.004.494L58.316 45c-10.575-1.941-35.127-2.716-36.642-2.763-.197.032-.232.034-.079-.002l.079.002c1.275-.206 33.333-5.459 51.921-.21l-31.461 22.06s24.257 2.358 32.813 1.367l-.573-4.424 22.83-21.158c.396-.525.625-1.354.374-2.108z"/></symbol><symbol id="icon-social_reddit" viewBox="0 0 24 24"><path d="M24 11.779a2.654 2.654 0 00-4.497-1.899c-1.81-1.191-4.259-1.949-6.971-2.046l1.483-4.669 4.016.941-.006.058a2.17 2.17 0 002.174 2.163c1.198 0 2.172-.97 2.172-2.163a2.171 2.171 0 00-4.193-.785l-4.329-1.015a.37.37 0 00-.44.249L11.755 7.82c-2.838.034-5.409.798-7.3 2.025a2.643 2.643 0 00-1.799-.712A2.654 2.654 0 000 11.779c0 .97.533 1.811 1.317 2.271a4.716 4.716 0 00-.086.857C1.231 18.818 6.039 22 11.95 22s10.72-3.182 10.72-7.093c0-.274-.029-.544-.075-.81A2.633 2.633 0 0024 11.779zM6.776 13.595c0-.868.71-1.575 1.582-1.575.872 0 1.581.707 1.581 1.575s-.709 1.574-1.581 1.574-1.582-.706-1.582-1.574zm9.061 4.669c-.797.793-2.048 1.179-3.824 1.179L12 19.44l-.013.003c-1.777 0-3.028-.386-3.824-1.179a.369.369 0 010-.523.372.372 0 01.526 0c.65.647 1.729.961 3.298.961l.013.003.013-.003c1.569 0 2.648-.315 3.298-.962a.373.373 0 01.526 0 .37.37 0 010 .524zm-.189-3.095a1.58 1.58 0 01-1.581-1.574c0-.868.709-1.575 1.581-1.575s1.581.707 1.581 1.575-.709 1.574-1.581 1.574z"/></symbol><symbol id="icon-social_scribd" viewBox="0 0 96.721 96.721"><path d="M75.302 68.443c-.034-9.977-.95-20.823-25.901-29.14-16.301-5.433-17.75-9.961-17.75-13.583 0-3.623 3.441-9.6 11.23-9.6 7.788 0 9.6 1.992 9.6 1.992 0 15.033 9.961 14.128 12.68 14.128 2.717 0 10.143-2.174 10.143-10.868C75.303 12.679 66.79 0 44.15 0S12.453 13.766 12.453 27.35c0 13.585 5.977 19.019 21.735 26.444 15.757 7.426 22.641 10.323 22.641 16.302 0 5.977-6.158 9.963-14.31 9.963-8.15 0-11.592-3.262-11.592-3.262s1.268-2.535 1.268-4.348c0-1.812-1.448-10.506-11.592-10.506-10.143 0-11.773 9.058-11.773 11.773 0 2.717 4.527 23.004 33.236 23.004 8.982 0 15.597-1.63 20.447-4.188a16.632 16.632 0 01-1.792-7.494c0-8.497 6.368-15.522 14.581-16.595z"/><circle cx="76.208" cy="83.59" r="11.684"/></symbol><symbol id="icon-social_skype" viewBox="0 0 24 24"><path d="M22.987 13.966C24.344 6.201 17.571-.446 9.935.987 4.114-2.574-2.568 4.213 1 10.016c-1.387 7.747 5.384 14.48 13.083 13.01 5.832 3.536 12.493-3.26 8.904-9.06zm-10.603 5.891c-3.181 0-6.378-1.448-6.362-3.941.005-.752.564-1.442 1.309-1.442 1.873 0 1.855 2.795 4.837 2.795 2.093 0 2.807-1.146 2.807-1.944 0-2.886-9.043-1.117-9.043-6.543 0-2.938 2.402-4.962 6.179-4.741 3.602.213 5.713 1.803 5.917 3.289.101.971-.542 1.727-1.659 1.727-1.628 0-1.795-2.181-4.6-2.181-1.266 0-2.334.528-2.334 1.674 0 2.395 8.99 1.005 8.99 6.276-.001 3.039-2.423 5.031-6.041 5.031z"/></symbol><symbol id="icon-social_slidshare" viewBox="0 0 97.593 97.593"><path d="M92.951 46.469c-.376.269-.751.524-1.125.778V9.48c0-5.243-3.943-9.48-8.796-9.48H14.612C9.76 0 5.817 4.237 5.817 9.48v37.802c-.39-.265-.782-.532-1.175-.813-2.915-2.034-4.826.735-3.039 3.381 3.479 4.262 10.093 9.555 20.234 13.719-10.729 36.55 26.188 42.355 25.623 23.615l.036-18.427c.97.228 1.81.451 2.601.646.016 7.736.034 18.119.034 17.781-.564 18.74 36.378 12.935 25.624-23.615 10.142-4.164 16.757-9.457 20.233-13.719 1.789-2.645-.121-5.414-3.037-3.381zm-36.425 9.31c-4.516-.228-6.189 1.714-6.412 4.707-1.087-.772-2.197-1.691-3.336-2.748-.189-.178-.37-.334-.544-.48-.99-1.044-2.625-1.605-5.164-1.479-6.053.188-17.131 1.389-30.033-5.371V13.766c0-6.638 1.691-8.72 7.767-8.72h60.554c5.757 0 7.789 2.474 7.789 8.72v36.336c-13.155 7.11-24.479 5.87-30.621 5.677z"/><path d="M63.141 29.298c-6.492 0-11.761 4.923-11.761 10.999s5.269 10.999 11.761 10.999c6.491 0 11.758-4.923 11.758-10.999s-5.267-10.999-11.758-10.999z"/><ellipse cx="35.776" cy="40.297" rx="11.757" ry="10.999"/></symbol><symbol id="icon-social_snapchat" viewBox="0 0 24 24"><path d="M5.829 4.533c-.6 1.344-.363 3.752-.267 5.436-.648.359-1.48-.271-1.951-.271-.49 0-1.075.322-1.167.802-.066.346.089.85 1.201 1.289.43.17 1.453.37 1.69.928.333.784-1.71 4.403-4.918 4.931a.498.498 0 00-.416.519c.056.975 2.242 1.357 3.211 1.507.099.134.179.7.306 1.131.057.193.204.424.582.424.493 0 1.312-.38 2.738-.144 1.398.233 2.712 2.215 5.235 2.215 2.345 0 3.744-1.991 5.09-2.215.779-.129 1.448-.088 2.196.058.515.101.977.157 1.124-.349.129-.437.208-.992.305-1.123.96-.149 3.156-.53 3.211-1.505a.498.498 0 00-.416-.519c-3.154-.52-5.259-4.128-4.918-4.931.236-.557 1.252-.755 1.69-.928.814-.321 1.222-.716 1.213-1.173-.011-.585-.715-.934-1.233-.934-.527 0-1.284.624-1.897.286.096-1.698.332-4.095-.267-5.438C17.036 1.986 14.511.7 11.987.7 9.479.7 6.973 1.968 5.829 4.533z"/></symbol><symbol id="icon-social_soundcloud" viewBox="0 0 24 24"><path d="M5.829 4.533c-.6 1.344-.363 3.752-.267 5.436-.648.359-1.48-.271-1.951-.271-.49 0-1.075.322-1.167.802-.066.346.089.85 1.201 1.289.43.17 1.453.37 1.69.928.333.784-1.71 4.403-4.918 4.931a.498.498 0 00-.416.519c.056.975 2.242 1.357 3.211 1.507.099.134.179.7.306 1.131.057.193.204.424.582.424.493 0 1.312-.38 2.738-.144 1.398.233 2.712 2.215 5.235 2.215 2.345 0 3.744-1.991 5.09-2.215.779-.129 1.448-.088 2.196.058.515.101.977.157 1.124-.349.129-.437.208-.992.305-1.123.96-.149 3.156-.53 3.211-1.505a.498.498 0 00-.416-.519c-3.154-.52-5.259-4.128-4.918-4.931.236-.557 1.252-.755 1.69-.928.814-.321 1.222-.716 1.213-1.173-.011-.585-.715-.934-1.233-.934-.527 0-1.284.624-1.897.286.096-1.698.332-4.095-.267-5.438C17.036 1.986 14.511.7 11.987.7 9.479.7 6.973 1.968 5.829 4.533z"/></symbol><symbol id="icon-social_spotify" viewBox="0 0 20 20"><path d="M9.951.317C4.64.317.317 4.64.317 9.952c0 5.316 4.322 9.64 9.634 9.64 5.317 0 9.642-4.324 9.642-9.64 0-5.313-4.325-9.635-9.642-9.635zM5.062 13.492a11.687 11.687 0 013.404-.512c1.939 0 3.853.491 5.536 1.421.1.055.19.235.232.46.04.224.024.455-.041.575a.49.49 0 01-.67.192 10.528 10.528 0 00-8.164-.83.489.489 0 01-.62-.323c-.085-.282.092-.907.323-.983zm-.42-3.55a14.578 14.578 0 013.824-.51c2.324 0 4.63.563 6.674 1.627a.587.587 0 01.297.347.6.6 0 01-.042.464c-.183.357-.396.597-.53.597a.62.62 0 01-.28-.069 13.112 13.112 0 00-6.119-1.489 13.12 13.12 0 00-3.507.47.602.602 0 01-.738-.422c-.09-.338.116-.931.421-1.014zm-.108-2.319a.708.708 0 01-.862-.515c-.098-.4.152-.864.514-.955a17.962 17.962 0 014.28-.521c2.772 0 5.426.623 7.89 1.853a.712.712 0 01.322.956c-.115.23-.364.48-.64.48a.737.737 0 01-.31-.07 16.084 16.084 0 00-7.262-1.707c-1.313 0-2.636.161-3.932.48z"/></symbol><symbol id="icon-social_tiktok" viewBox="-32 0 512 512"><path d="M432.734 112.465c-53.742 0-97.464-43.723-97.464-97.465 0-8.285-6.72-15-15-15h-80.336c-8.286 0-15 6.715-15 15v329.367c0 31.594-25.704 57.297-57.301 57.297-31.594 0-57.297-25.703-57.297-57.297 0-31.597 25.703-57.3 57.297-57.3 8.285 0 15-6.715 15-15V191.73c0-8.28-6.715-15-15-15C75.199 176.73 0 251.934 0 344.367 0 436.801 75.2 512 167.633 512S335.27 436.8 335.27 344.367V198.574c29.855 15.918 63.074 24.227 97.464 24.227 8.286 0 15-6.715 15-15v-80.336c0-8.281-6.714-15-15-15zm-15 79.715c-32.023-2.664-62.433-13.852-88.707-32.75a14.987 14.987 0 00-15.601-1.172 14.99 14.99 0 00-8.156 13.347v172.762c0 75.89-61.747 137.633-137.637 137.633S30 420.258 30 344.367c0-70.824 53.773-129.328 122.633-136.824v50.812c-41.016 7.133-72.297 42.985-72.297 86.012 0 48.137 39.16 87.301 87.297 87.301 48.14 0 87.3-39.164 87.3-87.3V30h51.212c6.87 58.32 53.27 104.719 111.59 111.59zm0 0"/></symbol><symbol id="icon-social_tripadvisor" viewBox="0 0 32 32"><path d="M16 6.594c-4.254 0-8.223 1.14-10.938 2.968H0c.828.97 1.441 2.29 1.594 3.188a7.946 7.946 0 00-1.532 4.688 7.972 7.972 0 007.97 7.968c2.495 0 4.726-1.172 6.187-2.968.594.695 1.582 2.093 1.781 2.5 0 0 1.137-1.68 1.781-2.47a7.972 7.972 0 0014.156-5.031 7.955 7.955 0 00-1.53-4.687c.152-.898.765-2.219 1.593-3.188h-5.313C23.974 7.734 20.25 6.595 16 6.595zm0 1.343c2.852 0 5.438.536 7.719 1.532A7.976 7.976 0 0016 17.438c0-4.395-3.543-7.961-7.938-7.97 2.278-.991 5.09-1.53 7.938-1.53zM8.031 11c3.543 0 6.406 2.898 6.406 6.438a6.402 6.402 0 01-6.406 6.406 6.4 6.4 0 01-6.406-6.407C1.625 13.899 4.488 11 8.031 11zm15.938 0c3.539 0 6.406 2.898 6.406 6.438a6.402 6.402 0 01-6.406 6.406 6.4 6.4 0 01-6.407-6.407c0-3.539 2.864-6.437 6.407-6.437zM7.937 13.531a3.88 3.88 0 00-3.875 3.875 3.88 3.88 0 003.875 3.875 3.88 3.88 0 003.875-3.875 3.88 3.88 0 00-3.874-3.875zm16.032 0a3.88 3.88 0 00-3.875 3.875c0 2.137 1.738 3.844 3.875 3.844 2.136 0 3.875-1.707 3.875-3.844a3.88 3.88 0 00-3.875-3.875zM7.937 14.72a2.692 2.692 0 012.688 2.687 2.692 2.692 0 01-2.688 2.688 2.692 2.692 0 01-2.687-2.688 2.692 2.692 0 012.688-2.687zm16.032 0a2.692 2.692 0 012.687 2.687c0 1.48-1.207 2.657-2.687 2.657-1.48 0-2.688-1.176-2.688-2.657a2.692 2.692 0 012.688-2.687zM7.75 16.094a1.32 1.32 0 00-1.313 1.312A1.32 1.32 0 007.75 18.72c.719 0 1.281-.594 1.281-1.313 0-.718-.562-1.312-1.281-1.312zm16 0c-.719 0-1.281.593-1.281 1.312 0 .719.562 1.282 1.281 1.282.719 0 1.313-.563 1.313-1.282a1.32 1.32 0 00-1.313-1.312z"/></symbol><symbol id="icon-social_tumblr" viewBox="0 0 24 24"><path d="M19.512 17.489l-.096-.068h-3.274c-.153 0-.16-.467-.163-.622v-5.714a.1.1 0 01.101-.101h3.82a.1.1 0 00.101-.101V5.117a.1.1 0 00-.101-.1h-3.803a.1.1 0 01-.1-.101V.1a.1.1 0 00-.101-.1h-7.15a1.16 1.16 0 00-1.135 1.034C7.27 3.812 5.729 5.159 3.335 5.959l-.267.089L3 6.144v4.74a.1.1 0 00.1.101H6v6.156C6 21.801 9.04 24 15.008 24c2.401 0 5.048-.855 5.835-1.891l.157-.208-1.488-4.412zm.339 4.258c-.75.721-2.554 1.256-4.028 1.281l-.165.001c-4.849 0-5.682-3.701-5.682-5.889v-7.039a.1.1 0 00-.1-.101H7.094a.1.1 0 01-.101-.101l-.024-3.06.064-.092c2.506-.976 3.905-2.595 4.273-5.593.021-.167.158-.171.159-.171h3.447c.055 0 .101.045.101.101V5.9a.1.1 0 00.1.101h3.803a.1.1 0 01.101.1v3.801a.1.1 0 01-.101.101h-3.819c-.056 0-.097.045-.097.101v6.705c.023 1.438.715 2.167 2.065 2.167.544 0 1.116-.126 1.685-.344a.099.099 0 01.13.061l.995 2.95-.024.104z" fill-rule="evenodd" clip-rule="evenodd"/></symbol><symbol id="icon-social_twitter" viewBox="0 0 24 24"><path d="M24 4.557a9.83 9.83 0 01-2.828.775 4.932 4.932 0 002.165-2.724 9.864 9.864 0 01-3.127 1.195 4.916 4.916 0 00-3.594-1.555c-3.179 0-5.515 2.966-4.797 6.045A13.978 13.978 0 011.671 3.149a4.93 4.93 0 001.523 6.574 4.903 4.903 0 01-2.229-.616c-.054 2.281 1.581 4.415 3.949 4.89a4.935 4.935 0 01-2.224.084 4.928 4.928 0 004.6 3.419A9.9 9.9 0 010 19.54a13.94 13.94 0 007.548 2.212c9.142 0 14.307-7.721 13.995-14.646A10.025 10.025 0 0024 4.557z"/></symbol><symbol id="icon-social_viber" viewBox="0 0 24 24"><path d="M12.892 13.745s.427.038.656-.247l.448-.563c.216-.28.738-.458 1.249-.174.676.382 1.55.982 2.149 1.541.33.278.407.688.182 1.121l-.002.009a4.71 4.71 0 01-.932 1.148l-.009.006c-.44.367-.946.58-1.487.404l-.01-.014c-.972-.275-3.304-1.464-4.79-2.649-2.431-1.918-4.159-5.082-4.637-6.778l-.015-.01c-.176-.543.039-1.049.404-1.488l.007-.008a4.668 4.668 0 011.148-.932l.009-.002c.432-.225.842-.149 1.121.182.367.379 1.056 1.291 1.54 2.149.284.51.106 1.033-.173 1.248l-.564.448c-.284.23-.247.657-.247.657s.834 3.156 3.953 3.952zm4.907-2.616a.304.304 0 01-.304-.302c-.014-1.83-.564-3.288-1.634-4.332-1.072-1.045-2.427-1.581-4.027-1.592a.302.302 0 01-.301-.306.302.302 0 01.303-.301h.002c1.762.012 3.258.606 4.447 1.764 1.19 1.162 1.802 2.765 1.817 4.763a.304.304 0 01-.301.306h-.002zm-1.595-.624h-.007a.304.304 0 01-.297-.31c.024-1.038-.273-1.878-.906-2.569-.63-.689-1.495-1.065-2.645-1.149a.305.305 0 01-.281-.325.305.305 0 01.325-.281c1.294.095 2.32.548 3.049 1.345.733.8 1.092 1.807 1.065 2.992a.304.304 0 01-.303.297zm-1.558-.522a.303.303 0 01-.303-.289c-.051-1.03-.537-1.534-1.527-1.588a.303.303 0 11.032-.606c1.308.07 2.034.819 2.101 2.164a.302.302 0 01-.288.318l-.015.001zm6.817 3.469c-.605 4.877-4.172 5.185-4.83 5.396-.28.09-2.882.737-6.152.524 0 0-2.438 2.94-3.199 3.705-.119.119-.258.167-.352.145-.131-.032-.167-.188-.165-.414l.02-4.016v-.001C2.023 17.468 2.3 12.496 2.354 9.893c.054-2.603.543-4.736 1.996-6.17 2.61-2.364 7.987-2.011 7.987-2.011 4.541.02 6.717 1.387 7.222 1.845 1.675 1.434 2.528 4.867 1.904 9.895zm-.652-11.113c-.597-.548-3.007-2.298-8.375-2.322 0 0-6.33-.382-9.416 2.45C1.302 4.185.698 6.698.634 9.815c-.063 3.118-.146 8.958 5.484 10.542l.006.002-.004 2.416s-.035.979.609 1.179c.779.241 1.236-.502 1.981-1.304.408-.44.971-1.086 1.397-1.58 3.851.322 6.812-.417 7.149-.526.777-.253 5.177-.816 5.893-6.657.738-6.022-.358-9.83-2.338-11.548z"/></symbol><symbol id="icon-social_vimeo" viewBox="0 0 24 24"><path d="M22.875 10.063c-2.442 5.217-8.337 12.319-12.063 12.319-3.672 0-4.203-7.831-6.208-13.043-.987-2.565-1.624-1.976-3.474-.681L.002 7.203C2.7 4.831 5.4 2.076 7.059 1.923c1.868-.179 3.018 1.098 3.448 3.832.568 3.593 1.362 9.17 2.748 9.17 1.08 0 3.741-4.424 3.878-6.006.243-2.316-1.703-2.386-3.392-1.663 2.673-8.754 13.793-7.142 9.134 2.807z"/></symbol><symbol id="icon-social_vk" viewBox="0 0 24 24"><path class="st0" d="M13.162 18.994c.609 0 .858-.406.851-.915-.031-1.917.714-2.949 2.059-1.604 1.488 1.488 1.796 2.519 3.603 2.519h3.2c.808 0 1.126-.26 1.126-.668 0-.863-1.421-2.386-2.625-3.504-1.686-1.565-1.765-1.602-.313-3.486C22.864 8.997 25.22 6 23.136 6h-3.981c-.772 0-.828.435-1.103 1.083-.995 2.347-2.886 5.387-3.604 4.922-.751-.485-.407-2.406-.35-5.261.015-.754.011-1.271-1.141-1.539A8.07 8.07 0 0011.148 5c-2.273 0-3.841.953-2.95 1.119 1.571.293 1.42 3.692 1.054 5.16-.638 2.556-3.036-2.024-4.035-4.305C4.976 6.426 4.902 6 4.042 6H.787C.295 6 0 6.16 0 6.516c0 .602 2.96 6.72 5.786 9.77 2.756 2.975 5.48 2.708 7.376 2.708z"/></symbol><symbol id="icon-social_waze" viewBox="0 0 23 21"><path d="M22.258 8.958c0-4.764-4.176-8.64-9.306-8.64-5.131 0-9.305 3.876-9.297 8.742.002.018.246 1.74-.53 2.647-.332.385-.813.574-1.472.574a.665.665 0 00-.665.665c0 1.842 1.365 3.123 4.12 3.868a2.65 2.65 0 00-.132.785 2.662 2.662 0 002.659 2.659 2.662 2.662 0 002.659-2.66c0-.022-.007-.042-.007-.064.833.042 1.717.065 2.665.065a2.662 2.662 0 002.659 2.659 2.662 2.662 0 002.659-2.66c0-.487-.142-.94-.373-1.334 2.615-1.531 4.36-4.23 4.36-7.306zm-5.346 6.337a2.62 2.62 0 00-1.301-.355c-.972 0-1.816.53-2.279 1.312-.127.005-.252.017-.38.017-1.124 0-2.132-.041-3.083-.1a2.653 2.653 0 00-2.234-1.229 2.64 2.64 0 00-1.779.697c-1.932-.458-3.105-1.157-3.438-2.095.703-.133 1.277-.458 1.717-.97 1.18-1.38.85-3.614.841-3.614 0-4.032 3.577-7.311 7.976-7.311s7.976 3.28 7.976 7.311c0 2.709-1.62 5.074-4.016 6.337z"/><path d="M10.296 6.3h-.013a.658.658 0 00-.654.664c0 .367.302.665.668.665a.663.663 0 00.661-.665.663.663 0 00-.662-.665zM15.614 6.3H15.6a.658.658 0 00-.655.664c0 .367.303.665.668.665a.663.663 0 00.661-.665.663.663 0 00-.661-.665zM16.42 9.639a.666.666 0 00-.795.503 2.723 2.723 0 01-2.673 2.14c-1.29 0-2.391-.88-2.674-2.14a.666.666 0 00-1.297.292 4.049 4.049 0 003.97 3.177 4.047 4.047 0 003.973-3.177.665.665 0 00-.504-.795z"/></symbol><symbol id="icon-social_whatsapp" viewBox="0 0 19 19"><path d="M9.645.317c2.557 0 4.736.903 6.537 2.709 1.83 1.806 2.746 3.99 2.746 6.553 0 2.534-.915 4.704-2.746 6.51-1.801 1.805-3.98 2.708-6.537 2.708a8.934 8.934 0 01-4.403-1.136L.317 18.928l1.308-4.762a9.194 9.194 0 01-1.22-4.63c0-2.534.9-4.704 2.702-6.51C4.908 1.22 7.087.317 9.645.317zm0 16.907c2.12 0 3.937-.742 5.448-2.228 1.51-1.514 2.266-3.335 2.266-5.46 0-2.127-.755-3.932-2.266-5.418-1.511-1.514-3.327-2.272-5.448-2.272-2.122 0-3.938.758-5.449 2.272C2.715 5.604 1.974 7.41 1.974 9.535c0 1.486.392 2.855 1.176 4.107l.175.262-.785 2.84L5.46 16l.262.131a7.527 7.527 0 003.923 1.092zm4.227-5.766c.262.145.407.247.436.306.116.174.073.538-.13 1.092-.088.233-.306.466-.654.699-.35.204-.654.335-.916.393a3.88 3.88 0 01-1.438-.088c-.494-.174-.93-.335-1.308-.48l-.697-.35a7.16 7.16 0 00-.61-.393 9.613 9.613 0 01-.567-.437l-.523-.436-.436-.438a6.617 6.617 0 00-.392-.436 3.279 3.279 0 00-.305-.35 1.689 1.689 0 00-.218-.306 1.428 1.428 0 00-.174-.218l-.044-.131c-.639-.845-.959-1.646-.959-2.403 0-.699.276-1.34.828-1.922.175-.204.378-.306.61-.306.175 0 .32.015.437.044.232 0 .406.13.523.393.058.087.145.277.261.568.116.291.218.553.305.786.087.204.13.32.13.35.088.145.103.276.045.393-.088.204-.16.335-.218.393l-.131.131a.684.684 0 00-.13.175l-.088.087c-.174.175-.218.335-.13.48.377.642.813 1.18 1.307 1.617.377.32 1.002.7 1.874 1.136.203.088.363.073.48-.043.348-.438.595-.743.74-.918.116-.175.29-.218.523-.131.175.087.698.335 1.57.743z"/></symbol><symbol id="icon-social_youtube" viewBox="0 0 24 24"><path d="M4.652 0h1.44l.988 3.702L7.996 0H9.45L7.785 5.505v3.757H6.354V5.505L4.652 0zm6.594 2.373c-1.119 0-1.861.74-1.861 1.835v3.349c0 1.204.629 1.831 1.861 1.831 1.022 0 1.826-.683 1.826-1.831V4.208c0-1.069-.797-1.835-1.826-1.835zm.531 5.127c0 .372-.19.646-.532.646-.351 0-.554-.287-.554-.646V4.321c0-.374.172-.651.529-.651.39 0 .557.269.557.651V7.5zm4.729-5.07v5.186c-.155.194-.5.512-.747.512-.271 0-.338-.186-.338-.46V2.43h-1.27v5.71c0 .675.206 1.22.887 1.22.384 0 .918-.2 1.468-.853v.754h1.27V2.43h-1.27zm2.203 13.858c-.448 0-.541.315-.541.763v.659h1.069v-.66c.001-.44-.092-.762-.528-.762zm-4.703.04a.927.927 0 00-.25.198v4.055c.099.106.194.182.287.229.197.1.485.107.619-.067.07-.092.105-.241.105-.449v-3.359c0-.22-.043-.386-.129-.5-.147-.193-.42-.214-.632-.107zm4.827-5.195c-2.604-.177-11.066-.177-13.666 0C2.353 11.325 2.021 13.025 2 17.5c.021 4.467.35 6.175 3.167 6.367 2.6.177 11.062.177 13.666 0 2.814-.192 3.146-1.893 3.167-6.367-.021-4.467-.35-6.175-3.167-6.367zM6.509 21.819H5.146v-7.54h-1.41v-1.28h4.182v1.28h-1.41v7.54zm4.846 0h-1.21v-.718a2.645 2.645 0 01-.696.605c-.652.374-1.547.365-1.547-.955v-5.438h1.209v4.988c0 .262.063.438.322.438.236 0 .564-.303.711-.487v-4.939h1.21v6.506zm4.657-1.348c0 .805-.301 1.431-1.106 1.431-.443 0-.812-.162-1.149-.583v.5h-1.221v-8.82h1.221v2.84c.273-.333.644-.608 1.076-.608.886 0 1.18.749 1.18 1.631v3.609zm4.471-1.752h-2.314v1.228c0 .488.042.91.528.91.511 0 .541-.344.541-.91v-.452h1.245v.489c0 1.253-.538 2.013-1.813 2.013-1.155 0-1.746-.842-1.746-2.013v-2.921c0-1.129.746-1.914 1.837-1.914 1.161 0 1.721.738 1.721 1.914v1.656z"/></symbol><symbol id="icon-social_youtube2" viewBox="0 0 24 24"><path d="M12 0C5.373 0 0 5.373 0 12s5.373 12 12 12 12-5.373 12-12S18.627 0 12 0zm4.441 16.892c-2.102.144-6.784.144-8.883 0C5.282 16.736 5.017 15.622 5 12c.017-3.629.285-4.736 2.558-4.892 2.099-.144 6.782-.144 8.883 0C18.718 7.264 18.982 8.378 19 12c-.018 3.629-.285 4.736-2.559 4.892zM10 9.658l4.917 2.338L10 14.342V9.658z"/></symbol><symbol id="icon-telephone" viewBox="0 0 10 14"><path d="M7.003 14H2.342c-.787 0-1.36-.19-1.754-.578C.192 13.03 0 12.454 0 11.662V2.34C0 1.569.192 1 .586.6.986.196 1.56 0 2.342 0h4.661c.79 0 1.364.192 1.758.588.394.395.583.967.583 1.752v9.32c0 .793-.192 1.37-.588 1.762-.393.389-.966.578-1.753.578zM2.342.797C1.246.797.798 1.244.798 2.34v9.32c0 1.125.418 1.543 1.544 1.543h4.661c1.126 0 1.544-.418 1.544-1.543V2.34c0-.564-.115-.953-.35-1.19C7.96.913 7.568.797 7.002.797H2.342z"/><path d="M4.673 10.953c-.359 0-.591.188-.591.594 0 .194.053.338.149.436.103.106.255.157.442.157.186 0 .338-.05.441-.157.096-.098.15-.242.15-.436-.001-.405-.233-.594-.591-.594z"/><path d="M4.673 12.34c-.244 0-.446-.075-.585-.217-.138-.142-.206-.334-.206-.575 0-.497.296-.793.79-.793.495 0 .79.296.79.792 0 .243-.07.436-.206.576-.137.14-.34.217-.583.217zm0-1.187c-.271 0-.392.122-.392.394 0 .135.031.235.093.298.061.063.163.097.298.097.136 0 .237-.033.3-.097.062-.064.092-.163.092-.298 0-.272-.12-.395-.391-.395v.001z"/></symbol><symbol id="icon-user" viewBox="0 0 15 16"><g clip-path="url(#clip0)"><path d="M7.5 8.533c-1.388 0-2.472-.4-3.221-1.189-.706-.743-1.065-1.779-1.065-3.077s.358-2.332 1.065-3.076C5.028.4 6.112 0 7.5 0c1.389 0 2.472.4 3.221 1.189.706.744 1.065 1.779 1.065 3.077s-.358 2.333-1.065 3.077c-.749.79-1.832 1.19-3.22 1.19zm0-7.256c-1.994 0-3.005 1.006-3.005 2.99 0 1.985 1.011 2.991 3.005 2.991s3.005-1.006 3.005-2.99c0-1.985-1.011-2.993-3.005-2.993v.002zM14.36 16H.64a.648.648 0 01-.453-.183.615.615 0 01-.187-.44v-1.155c0-1.495.406-2.65 1.208-3.436C2.009 10 3.192 9.6 4.719 9.6h5.561c1.528 0 2.71.399 3.512 1.186.803.787 1.208 1.942 1.208 3.436v1.155a.615.615 0 01-.187.44.648.648 0 01-.453.183zM1.28 14.754h12.442v-.532c0-1.152-.281-2.014-.836-2.558-.555-.544-1.43-.819-2.604-.819H4.718c-1.174 0-2.05.276-2.604.82-.554.543-.836 1.404-.836 2.557v.532z"/></g></symbol><symbol id="icon-video_play" viewBox="0 0 48 48"><path fill-rule="evenodd" clip-rule="evenodd" d="M24 0c6.632 0 12.29 2.347 16.8 7.2C45.658 11.737 48 17.39 48 24c0 6.61-2.342 12.263-7.2 16.8C36.29 45.653 30.632 48 24 48c-6.632 0-12.29-2.347-16.8-7.2C2.342 36.263 0 30.61 0 24c0-6.61 2.342-12.263 7.2-16.8C11.71 2.347 17.368 0 24 0zm-4.8 34.8L33.6 24 19.2 13.2v21.6z"/></symbol></svg>