<svg width="65" height="64" fill="none" xmlns="http://www.w3.org/2000/svg" viewBox="0 0 65 64"><path d="M32.03 64c-.129 0-.246 0-.356-.008h-.049a6.831 6.831 0 01-1.198-.174 10.556 10.556 0 01-3.925-1.776c-1.163-.837-2.681-2.277-3.715-3.346-5.273-5.45-8.354-9.313-12.208-15.322C5.76 35.876 2.453 28.44.75 21.274-1.039 13.739.396 7.514 4.79 3.736 7.347 1.538 10.84.223 14.638.026c4.038-.207 8.229.828 12.13 2.996 1.373.762 2.79 1.584 4.33 2.497a2.028 2.028 0 001.969.008 177.831 177.831 0 014.342-2.506C41.306.854 45.5-.18 49.538.026c3.794.195 7.288 1.512 9.846 3.71 4.392 3.774 5.825 10.002 4.035 17.539-1.7 7.156-5.011 14.591-9.831 22.097-3.835 5.97-6.902 9.825-12.117 15.225a.934.934 0 01-.081.097c-1.034 1.068-2.551 2.507-3.716 3.345a10.555 10.555 0 01-3.93 1.776c-.392.093-.791.15-1.193.171h-.044c-.13.007-.266.01-.418.009l-.058.005zM15.657 1.83c-.31 0-.618.008-.925.024-3.393.174-6.501 1.336-8.751 3.27-1.95 1.674-3.23 3.9-3.807 6.615-.568 2.667-.449 5.732.354 9.111 1.654 6.964 4.88 14.21 9.584 21.533 3.831 5.962 6.747 9.615 11.987 15.04.978 1.011 2.404 2.366 3.469 3.133a8.72 8.72 0 003.253 1.474l.026.005c.292.069.59.11.89.126h.036c.086.004.19.006.31.005h.012c.116 0 .217 0 .308-.005H32.44c.3-.015.598-.057.89-.126l.026-.005a8.716 8.716 0 003.254-1.474c1.033-.744 2.403-2.038 3.377-3.038a.916.916 0 01.08-.092c5.243-5.428 8.155-9.08 11.986-15.043 4.71-7.333 7.938-14.578 9.59-21.533.803-3.379.923-6.446.357-9.112-.576-2.714-1.855-4.94-3.803-6.613-2.25-1.935-5.358-3.097-8.751-3.27-3.697-.192-7.553.766-11.15 2.768a170.62 170.62 0 00-4.305 2.483l-.015.01a3.85 3.85 0 01-3.795-.013l-.01-.007a159.037 159.037 0 00-4.289-2.474c-3.3-1.835-6.814-2.792-10.225-2.792z" fill="#fff"/></svg>