<svg width="90" height="90" fill="none" xmlns="http://www.w3.org/2000/svg" viewBox="0 0 90 90"><path d="M0 45C0 14.288 16.494 0 45 0s45 14.288 45 45-16.494 45-45 45S0 75.712 0 45z" fill="#019BF2"/><path d="M56.534 66.094H33.466c-2.077 0-3.268-1.254-3.268-3.44V48.44h-5.12c-.23 0-.454-.07-.645-.203a1.22 1.22 0 01-.432-.543 1.293 1.293 0 01-.076-.704c.04-.238.146-.457.304-.632l19.95-22.068c.109-.121.24-.217.386-.283a1.121 1.121 0 01.924 0c.146.067.278.164.387.285l5.291 5.869v-2.814c0-.327.124-.64.343-.872.22-.231.518-.36.829-.36h6.29c.155-.001.307.03.45.093.142.061.27.152.38.267.108.114.195.25.254.4.059.15.09.31.09.472v12.392l5.969 6.621c.157.175.263.395.303.632.04.237.014.482-.076.703-.09.222-.241.41-.432.543a1.13 1.13 0 01-.645.203h-5.12v14.215c0 2.185-1.191 3.439-3.268 3.439z" fill="#fff"/></svg>