<svg width="22" height="22" fill="none" xmlns="http://www.w3.org/2000/svg" viewBox="0 0 22 22"><path d="M10.703 21.743C4.815 21.743.045 16.97.045 11.086.045 5.197 4.818.428 10.703.428 16.59.428 21.36 5.2 21.36 11.085c.003 5.888-4.77 10.658-10.657 10.658z" fill="#5BC500"/><path fill-rule="evenodd" clip-rule="evenodd" d="M16.549 10.788c-.078-3.079-2.616-5.551-5.737-5.551-3.085 0-5.599 2.416-5.736 5.447-.003.084-.006.167-.006.25 0 1.079.3 2.083.824 2.942l-1.035 3.056 3.18-1.01c.824.45 1.769.71 2.773.71 3.172 0 5.74-2.55 5.74-5.698-.003-.047-.003-.095-.003-.146zm-5.74 4.937a4.8 4.8 0 01-2.654-.794l-1.854.592.603-1.78a4.748 4.748 0 01-.894-3.273c.237-2.425 2.3-4.324 4.802-4.324 2.536 0 4.616 1.95 4.812 4.417.012.124.015.246.015.374-.003 2.64-2.17 4.788-4.83 4.788z" fill="#fff"/><path fill-rule="evenodd" clip-rule="evenodd" d="M13.44 12.084c-.143-.068-.832-.407-.963-.454-.128-.048-.223-.072-.318.07a8.97 8.97 0 01-.446.548c-.083.095-.163.104-.306.035-.14-.07-.595-.213-1.132-.692a4.177 4.177 0 01-.782-.966c-.08-.14-.009-.214.062-.285.066-.066.14-.164.211-.244.018-.024.036-.045.05-.068.034-.05.057-.098.09-.167.048-.095.024-.175-.012-.243-.036-.072-.318-.758-.437-1.038-.116-.28-.235-.232-.318-.232-.08 0-.175-.011-.267-.011a.525.525 0 00-.378.175c-.127.14-.49.478-.49 1.165 0 .16.03.32.071.476.143.49.449.897.503.968.068.092.971 1.549 2.4 2.11 1.434.556 1.434.372 1.692.348.259-.02.832-.336.948-.663.119-.324.119-.603.083-.662-.026-.066-.122-.098-.261-.17z" fill="#fff"/></svg>