<svg width="22" height="22" fill="none" xmlns="http://www.w3.org/2000/svg" viewBox="0 0 22 22"><path d="M10.96 21.743C5.072 21.743.302 16.97.302 11.086.302 5.197 5.075.428 10.96.428c5.887 0 10.657 4.773 10.657 10.657 0 5.885-4.77 10.658-10.657 10.658z" fill="#73D9EB"/><path d="M11.862 15.3c-5.387 0-6.561-1.446-7.043-2.078a.684.684 0 01-.18-.481c0-.421.33-.752.752-.752.27 0 1.053 0 1.053-1.475v-.18c0-2.74 2.438-4.967 5.418-4.967s5.417 2.228 5.417 4.966c0 2.739-2.438 4.966-5.417 4.966z" fill="#3B3B3B"/><path d="M11.862 14.697c2.649 0 4.816-1.956 4.816-4.364 0-2.407-2.167-4.364-4.816-4.364-2.648 0-4.815 1.957-4.815 4.364v.18c0 1.867-1.144 2.078-1.655 2.078-.09 0-.15.06-.15.15 0 .03 0 .06.03.09.45.572 1.474 1.866 6.59 1.866z" fill="#fff"/><path d="M13.367 8.678a.604.604 0 00-.602.602c0 .331.27.602.602.602.33 0 .602-.271.602-.602a.604.604 0 00-.602-.602zm-3.01 0a.604.604 0 00-.602.602c0 .331.271.602.602.602.331 0 .602-.271.602-.602a.604.604 0 00-.602-.602zm1.505 3.912c-1.444 0-2.016-1.053-2.107-1.595a.33.33 0 01.241-.36.33.33 0 01.361.24c0 .03.21 1.114 1.505 1.114 1.294 0 1.505-1.054 1.505-1.114.03-.15.18-.27.361-.24.15.03.27.18.24.33-.09.572-.661 1.626-2.106 1.626zm-3.16 1.505c-.75 0-1.354.605-1.354 1.355 0 .749.605 1.354 1.354 1.354.75 0 1.354-.605 1.354-1.354 0-.75-.605-1.355-1.354-1.355z" fill="#3B3B3B"/><path d="M8.701 14.998a.45.45 0 100 .902.45.45 0 000-.902z" fill="#444"/><path d="M13.517 14.095c-.749 0-1.354.605-1.354 1.354 0 .75.605 1.355 1.354 1.355.75 0 1.355-.605 1.355-1.354 0-.75-.605-1.355-1.355-1.355z" fill="#3B3B3B"/><path d="M13.517 14.998a.45.45 0 10-.001.902.45.45 0 000-.902z" fill="#444"/></svg>