<svg width="23" height="22" fill="none" xmlns="http://www.w3.org/2000/svg" viewBox="0 0 23 22"><path d="M22.25 11.085C22.25 5.2 17.477.428 11.59.428 5.705.428.934 5.199.934 11.085c0 5.887 4.771 10.658 10.657 10.658 5.887 0 10.658-4.771 10.658-10.657z" fill="#019BF2"/><g clip-path="url(#clip0)"><path d="M9.904 9.522a31.44 31.44 0 000 5.159l.009.108c.027.328.196.426.497.287a22.165 22.165 0 004.51-2.74c.222-.175.228-.423.01-.589-1.393-1.065-2.902-1.924-4.497-2.627-.315-.139-.492-.027-.522.314l-.007.088z" fill="#5BC500"/><path d="M16.612 12.229c-.003.87-.149 1.707-.53 2.487-.533 1.092-1.452 1.647-2.58 1.902-1.377.314-2.732.284-4.044-.288-1.374-.599-2-1.742-2.202-3.2a6.456 6.456 0 01.14-2.447C7.74 9.279 8.578 8.35 9.952 7.958c1.45-.415 2.895-.412 4.306.147 1.336.53 2.027 1.6 2.247 3.014.056.368.071.742.106 1.11zM9.985 9.616a30.379 30.379 0 000 4.984l.008.104c.027.317.19.412.48.277a21.417 21.417 0 004.36-2.647c.213-.168.219-.408.008-.569-1.346-1.028-2.804-1.859-4.345-2.538-.304-.134-.476-.026-.504.303l-.007.086zM9.2 6.365a1.61 1.61 0 00-.037-.266c-.079-.22-.38-.255-.488-.048l-.002.004c-.124.246-.198.52-.281.786-.106.34-.33.537-.672.554-.297.015-.522-.131-.663-.412a5.015 5.015 0 00-.351-.608.245.245 0 00-.018-.022c-.104-.11-.29-.049-.326.1a.23.23 0 00-.003.087c.03.209.129.407.161.615.002.01.003.02.003.031 0 .174-.22.256-.337.13a.162.162 0 01-.033-.05c-.214-.517-.304-1.057-.146-1.61.08-.278.209-.54.514-.609.324-.07.507.152.663.4.09.142.171.29.271.423.22.29.522.26.675-.07.103-.222.183-.456.285-.679.116-.253.311-.426.59-.413.262.012.389.216.473.453.183.498.218 1.041.1 1.56a.12.12 0 01-.02.041c-.096.136-.308.087-.354-.074 0-.006-.01-.221-.01-.323H9.2z" fill="#fff"/></g><defs><clipPath id="clip0"><path fill="#fff" d="M5.922 4.704h10.69v12.115H5.922z"/></clipPath></defs></svg>