<svg width="22" height="22" fill="none" xmlns="http://www.w3.org/2000/svg" viewBox="0 0 22 22"><path d="M11.332.428c5.886 0 10.657 4.771 10.657 10.658 0 5.886-4.771 10.657-10.657 10.657S.674 16.972.674 11.086C.674 5.199 5.446.428 11.332.428z" fill="#2296F3"/><path d="M11.332 4.463c-3.636 0-6.582 2.745-6.582 6.131 0 1.93.957 3.652 2.453 4.776v2.338l2.24-1.238a7.005 7.005 0 001.889.256c3.635 0 6.581-2.746 6.581-6.133 0-3.385-2.946-6.13-6.581-6.13zm.654 8.258l-1.676-1.8-3.271 1.8 3.597-3.843 1.717 1.8 3.23-1.8-3.597 3.843z" fill="#fff"/></svg>