<svg width="23" height="22" fill="none" xmlns="http://www.w3.org/2000/svg" viewBox="0 0 23 22"><path d="M11.646 21.743C5.759 21.743.989 16.971.989 11.087.99 5.2 5.762.427 11.646.427c5.886 0 10.656 4.773 10.656 10.657.003 5.887-4.77 10.66-10.656 10.66z" fill="url(#paint0_radial)"/><path d="M11.645 6.294c1.56 0 1.744.006 2.363.032.57.027.88.122 1.084.202.274.107.467.232.672.437.205.205.33.398.437.672.08.205.175.514.202 1.085.026.615.032.802.032 2.362s-.006 1.744-.032 2.362c-.027.571-.122.88-.202 1.085a1.814 1.814 0 01-.437.672c-.205.205-.398.33-.672.437-.205.08-.514.175-1.085.202-.615.026-.799.032-2.362.032-1.56 0-1.744-.006-2.362-.032-.571-.027-.88-.122-1.085-.203a1.814 1.814 0 01-.672-.436 1.814 1.814 0 01-.437-.672c-.08-.205-.175-.514-.202-1.085-.026-.615-.032-.802-.032-2.362s.006-1.744.032-2.362c.027-.571.122-.88.202-1.085.107-.274.232-.467.437-.672.205-.205.398-.33.672-.437.205-.08.514-.175 1.085-.202.618-.026.802-.032 2.362-.032zm0-1.052c-1.587 0-1.786.006-2.41.035-.621.03-1.046.128-1.417.27-.384.15-.71.348-1.035.675-.324.324-.526.651-.674 1.034-.146.372-.244.797-.27 1.418-.03.624-.036.823-.036 2.41 0 1.587.006 1.786.035 2.41.03.621.128 1.046.27 1.417.15.384.348.71.675 1.035.324.324.651.526 1.035.674.371.146.796.244 1.417.27.624.03.823.036 2.41.036 1.587 0 1.786-.006 2.41-.035.621-.03 1.046-.128 1.418-.27.383-.15.71-.348 1.034-.675.323-.324.526-.651.674-1.035.146-.371.244-.796.27-1.417.03-.624.036-.823.036-2.41 0-1.587-.006-1.786-.035-2.41-.03-.621-.128-1.046-.27-1.418a2.827 2.827 0 00-.675-1.034 2.865 2.865 0 00-1.035-.674c-.371-.146-.796-.244-1.417-.27-.624-.03-.823-.036-2.41-.036z" fill="#fff"/><path d="M11.645 8.086a3 3 0 100 6.002 3 3 0 100-6.002zm0 4.947a1.945 1.945 0 110-3.892 1.945 1.945 0 110 3.892zM15.467 7.967a.703.703 0 01-.701.701.703.703 0 01-.701-.701.7.7 0 111.403 0z" fill="#fff"/><defs><radialGradient id="paint0_radial" cx="0" cy="0" r="1" gradientUnits="userSpaceOnUse" gradientTransform="translate(.456 21.813) scale(39.4086)"><stop stop-color="#F5EC53"/><stop offset=".241" stop-color="#E48244"/><stop offset=".397" stop-color="#D15767"/><stop offset=".489" stop-color="#C84278"/><stop offset="1" stop-color="#192CFA"/></radialGradient></defs></svg>