<svg width="22" height="22" fill="none" xmlns="http://www.w3.org/2000/svg" viewBox="0 0 22 22"><path d="M11.275 21.743C5.387 21.743.617 16.97.617 11.086.617 5.197 5.39.428 11.275.428c5.888 0 10.658 4.773 10.658 10.657 0 5.885-4.77 10.658-10.658 10.658z" fill="#1ED760"/><path d="M11.275 4.853a6.233 6.233 0 10.001 12.466 6.233 6.233 0 000-12.466zm2.868 9.006c-.124.187-.341.25-.529.124-1.465-.903-3.302-1.09-5.483-.591-.217.062-.404-.092-.467-.28-.062-.216.092-.404.28-.466 2.368-.53 4.425-.312 6.045.686.217.09.247.34.154.526zm.746-1.715c-.154.217-.436.312-.653.154-1.683-1.028-4.239-1.34-6.2-.716-.25.062-.53-.063-.592-.312-.062-.25.063-.53.312-.592 2.274-.686 5.08-.341 7.012.841.184.096.279.408.121.625zm.063-1.745c-1.994-1.183-5.33-1.308-7.228-.716a.583.583 0 01-.716-.375.583.583 0 01.374-.716c2.211-.654 5.858-.529 8.164.841.28.155.375.53.217.812-.157.216-.529.309-.811.154z" fill="#fff"/></svg>