<svg width="90" height="90" fill="none" xmlns="http://www.w3.org/2000/svg" viewBox="0 0 90 90"><path d="M0 45C0 14.288 16.494 0 45 0s45 14.288 45 45-16.494 45-45 45S0 75.712 0 45z" fill="#019BF2"/><path d="M57.768 25.688c-1.165-1.199-2.885-1.782-5.256-1.782H38.3c-4.617 0-6.956 2.373-6.956 7.053v28.082c0 4.746 2.276 7.052 6.956 7.052h14.212c4.681 0 6.956-2.306 6.956-7.052V30.959c0-2.37-.556-4.094-1.7-5.271zM47.175 60.447c-.42.427-1.025.654-1.759.654-.733 0-1.341-.226-1.758-.654-.417-.428-.62-1.007-.62-1.736 0-1.496.889-2.389 2.378-2.389 1.49 0 2.376.893 2.376 2.39 0 .728-.207 1.313-.617 1.735z" fill="#fff"/></svg>