<svg width="90" height="90" fill="none" xmlns="http://www.w3.org/2000/svg" viewBox="0 0 90 90"><path d="M0 45C0 14.288 16.494 0 45 0s45 14.288 45 45-16.494 45-45 45S0 75.712 0 45z" fill="#019BF2"/><path d="M69.052 44.473c-.014 2.27-.16 4.653-.72 7a3.884 3.884 0 01-1.057 1.856c-.68.675-1.539.993-2.543.777-.998-.217-1.509-.886-1.73-1.745-.303-1.174-.072-2.359.05-3.531.183-1.78.336-3.561.233-5.35-.051-.939-.188-1.893-.96-2.587-1.036-.929-2.456-.799-3.684.268-1.12.967-1.868 2.162-2.487 3.439-1.25 2.586-2.086 5.301-2.976 7.995-.484 1.452-1.029 2.883-2.14 4.048-3.878 4.05-11.133 3.684-14.42-.808-1.835-2.507-3.404-5.165-5.1-7.756-.369-.56-.763-1.103-1.266-1.578-.545-.509-1.149-.74-1.936-.55-.83.201-1.116.784-1.25 1.448-.196 1.008-.04 2 .188 2.992.495 2.172 1.438 4.224 2.042 6.361.189.661.31 1.328.269 2.014-.053.785-.405 1.434-1.216 1.752-.925.368-1.85.289-2.657-.294-.783-.567-1.216-1.375-1.564-2.19-1.79-4.147-3.076-8.4-2.866-12.915.142-2.962.69-5.857 2.182-8.534 1.212-2.183 2.957-3.824 5.765-4.233 1.91-.278 3.614.125 5.107 1.259 1.744 1.325 2.97 3.026 4.225 4.71.948 1.26 1.714 2.64 2.825 3.794 1.068 1.117 2.339 1.95 4.057 1.877 1.912-.079 3.074-1.134 3.794-2.644 1.25-2.631 2.268-5.348 3.578-7.963 1.007-2.015 2.478-3.66 4.735-4.554 3.388-1.343 6.507-.318 8.365 2.69 1.518 2.466 2.273 5.166 2.726 7.946.259 1.621.366 3.25.431 5.006z" fill="#fff"/></svg>