<svg width="44" height="44" fill="none" xmlns="http://www.w3.org/2000/svg" viewBox="0 0 44 44"><path d="M.429 9.675A9.364 9.364 0 019.793.311h24.49a9.364 9.364 0 019.365 9.364v24.49a9.364 9.364 0 01-9.365 9.365H9.793a9.364 9.364 0 01-9.364-9.364V9.676z" fill="#019BF2"/><path d="M5.764 5.795c-.536.005-1.523.255-1.97 1.964a5.424 5.424 0 00-.104 2.453c.154.854.432 1.593.615 1.995.065.139.164.287.238.374.219.26.586.24.74.171.168-.078.361-.263.287-.683a5.565 5.565 0 00-.183-.67c-.17-.508-.392-1.127-.412-1.562-.025-.586.223-.665.387-.697.278-.056.51.226.729.582.263.425.714 1.173 1.081 1.75.333.518.948 1.072 1.93 1.036 1.007-.037 1.746-.398 2.128-1.52.287-.841.48-1.47.793-2.111.362-.74.838-1.137 1.245-1.017.377.111.471.453.476.957.005.443-.05.933-.094 1.293-.015.13-.045.393-.035.54.025.287.154.573.501.62.367.05.665-.227.784-.56.045-.129.084-.332.11-.475.108-.716.138-1.201.088-1.936-.06-.859-.238-1.644-.55-2.323-.303-.647-.784-1.063-1.409-1.1-.69-.041-1.478.384-1.89 1.21-.382.758-.684 1.539-.873 1.936-.188.402-.46.651-.887.693-.521.05-.968-.3-1.295-.8-.288-.433-.853-1.265-1.156-1.542-.273-.259-.6-.587-1.274-.578zM35.867 24.802c0 9.28-5.499 12.486-13.232 12.486-10.826 0-13.404-6.243-13.404-12.485 0-6.243 2.836-12.486 13.404-12.486 10.139 0 13.232 5.59 13.232 12.485z" fill="#fff"/><path d="M17.332 30.542c-.538-3.026-.507-8.84.002-11.672.132-.736.926-1.085 1.657-.787 3.344 1.366 8.27 4.164 10.794 5.835.636.42.713 1.188.093 1.629-2.29 1.63-7.723 4.501-10.824 5.813-.753.319-1.586-.054-1.722-.818z" fill="#5BC500"/></svg>