<svg width="44" height="44" fill="none" xmlns="http://www.w3.org/2000/svg" viewBox="0 0 44 44"><path d="M.647 7.754A7.443 7.443 0 018.091.311h28.332a7.443 7.443 0 017.443 7.443v28.333a7.443 7.443 0 01-7.443 7.443H8.091a7.443 7.443 0 01-7.444-7.443V7.754z" fill="#fff"/><mask id="a" maskUnits="userSpaceOnUse" x="0" y="0" width="44" height="44"><path d="M.647 7.754A7.443 7.443 0 018.091.311h28.332a7.443 7.443 0 017.443 7.443v28.333a7.443 7.443 0 01-7.443 7.443H8.091a7.443 7.443 0 01-7.444-7.443V7.754z" fill="#C4C4C4"/></mask><g mask="url(#a)"><path d="M65.716 42.09c0 15.78-19.457 28.572-43.46 28.572-24 0-43.458-12.792-43.458-28.572s19.457-28.573 43.459-28.573c24.001 0 43.459 12.793 43.459 28.573z" fill="#E9426D"/></g><path d="M16.253 8.414c-.008.593-.05 1.215-.19 1.827a1.036 1.036 0 01-.259.482c-.165.175-.373.256-.614.196-.24-.059-.362-.235-.413-.46-.07-.307-.012-.616.02-.922.049-.465.09-.93.07-1.397-.011-.246-.042-.495-.226-.679-.247-.245-.59-.215-.888.06-.273.25-.456.56-.608.893-.307.672-.515 1.38-.736 2.081-.12.378-.255.75-.525 1.052-.944 1.048-2.691.934-3.473-.248-.436-.66-.808-1.358-1.21-2.04a2.275 2.275 0 00-.302-.415c-.13-.134-.275-.196-.465-.149-.2.05-.27.202-.304.376-.05.262-.015.522.038.782.114.569.336 1.107.477 1.667.044.173.072.348.06.527-.015.205-.101.373-.297.454a.601.601 0 01-.64-.083c-.187-.15-.29-.363-.371-.576-.422-1.088-.722-2.203-.66-3.382.04-.774.18-1.528.545-2.224.297-.567.722-.992 1.4-1.091.46-.068.87.042 1.227.342.417.35.708.798 1.007 1.241.225.332.407.694.672.999.254.294.559.515.973.5.46-.015.743-.288.92-.68.308-.685.56-1.392.881-2.072.248-.524.606-.95 1.152-1.177.82-.343 1.569-.067 2.01.724.36.648.535 1.355.637 2.083.059.424.08.85.092 1.309z" fill="#019BF2"/><path fill-rule="evenodd" clip-rule="evenodd" d="M26.038 23.08a2.149 2.149 0 00-.016-.215c.018-.102.032-.204.045-.303.043-.323.084-.627.258-.904.256-.408.619-.589 1.087-.438.469.151.438.544.393.936-.06.408-.211.77-.453 1.102-.227.317-.514.634-.922.513-.37-.107-.381-.412-.392-.692zm10.778 2.924l.002.007.003.01.019.06c-.076.467-.378.754-.71.98-.302.198-.612.387-.924.577-.375.229-.753.458-1.116.706-.846.573-.907.86-.393 1.736.151.253.304.502.457.75l.01.015.002.003.001.002c.225.364.45.728.663 1.101.136.242.257.498.333.755.105.377-.106.634-.423.785-.348.18-.575-.046-.726-.332a26.637 26.637 0 01-.434-.825l-.001-.003c-.212-.414-.423-.828-.667-1.225-.665-1.072-.952-1.087-1.783-.166-.689.76-1.28 1.588-1.877 2.422l-.001.002-.002.002a107.528 107.528 0 01-.576.805l-.004.006-.006.007c-.28.407-.6.872-1.13.484-.44-.327-.158-.779.088-1.174.05-.08.098-.156.139-.23.456-.784 1.07-1.452 1.685-2.119l.006-.006.003-.004a64.124 64.124 0 00.655-.72l.01-.01c.213-.235.427-.472.647-.703.438-.437.378-.815-.075-1.192a24.449 24.449 0 01-1.149-.981c-.302-.272-.528-.604-.574-1.026-.045-.423.015-.846.408-1.057.364-.2.561.078.73.316l.002.003.002.002c.033.047.065.092.097.132a51.53 51.53 0 011.541 2.037c.333.453.635.438 1.027.046.213-.216.42-.438.626-.658l.001-.002c.6-.642 1.196-1.28 1.927-1.785.62-.438 1.103-.347 1.39.211.045.079.073.175.097.256zm-16.858 1.108l-.001.02-.001.027-.007.189.143-.16.008-.009.005-.006c.22-.247.445-.499.69-.73.528-.529 1.148-.906 1.903-.997.393-.045.77.03.997.393.197.302.136.619-.045.92-.226.378-.529.423-.967.332-1.133-.241-1.858.408-2.417 1.283-.665 1.057-.952 2.25-1.209 3.457a17.72 17.72 0 00-.182.92v.003l-.004.016-.003.016c-.036.2-.072.401-.113.599-.01.054-.013.113-.015.173v.006c-.006.193-.013.39-.287.425-.317.045-.59-.09-.786-.362-.332-.438-.332-.951-.241-1.45l.017-.104c.145-.872.293-1.756.496-2.627.168-.75.362-1.493.556-2.238.103-.395.206-.79.305-1.188.091-.332.212-.574.605-.513.362.06.513.286.544.618.036.32.023.639.01.983l-.001.002v.002zm3.86 6.148v.002c.028.342.055.675.498.727.513.075.967-.06 1.148-.604.033-.1.042-.215.05-.323v-.003l.01-.112c.106-1.81.408-3.577.967-5.312.136-.453.212-.921.287-1.389.046-.241.016-.513-.272-.649-.256-.106-.483-.03-.71.12a.949.949 0 00-.392.544 59.053 59.053 0 00-1.602 6.837l.015.162zM8.014 32.993l-.136.407a3.63 3.63 0 00-.181.725c-.03.15-.046.332.03.483.136.302.529.407.891.437a.519.519 0 00.529-.392c.08-.372.164-.744.248-1.116.168-.745.336-1.49.477-2.235.09-.483.242-.603.77-.513 3.098.513 5.651-1.056 6.346-3.833.499-2.008-.106-3.88-1.662-4.724-2.01-1.087-4.049-1.012-6.073 0-.363.18-.665.452-.801.86-.06.211-.075.407.106.558.166.136.332.046.483-.045.098-.058.194-.12.29-.182.156-.1.313-.202.48-.286.036-.017.073-.04.11-.062.159-.095.337-.202.495-.043.115.103.055.267 0 .419-.017.048-.034.095-.045.139-.023.075-.042.15-.06.225-.02.076-.038.152-.061.228a404.54 404.54 0 00-.646 2.528c-.172.676-.343 1.353-.517 2.03l-.13.509c-.141.555-.284 1.113-.4 1.68-.15.739-.316 1.478-.543 2.203zm4.835-10.294c1.707.302 2.75 1.6 2.75 3.441 0 2.551-2.493 4.302-4.971 3.502-.332-.106-.332-.226-.257-.528a98.782 98.782 0 011.647-5.947c.151-.498.408-.543.83-.468z" fill="#fff"/><path d="M36.84 26.08c-.075.468-.377.74-.71.966-.664.438-1.374.83-2.039 1.283-.846.573-.906.86-.393 1.735.363.634.756 1.238 1.133 1.872.136.242.257.498.333.755.106.377-.121.633-.423.784-.348.166-.574-.045-.725-.332-.363-.679-.695-1.388-1.103-2.052-.65-1.072-.952-1.087-1.783-.166-.861.95-1.571 2.022-2.327 3.049-.302.422-.65 1.132-1.269.679-.544-.393-.03-.966.227-1.404.544-.936 1.314-1.705 2.04-2.505.317-.348.634-.725.966-1.057.439-.438.378-.815-.075-1.192-.393-.317-.77-.634-1.148-.981-.303-.272-.53-.604-.575-1.026-.045-.423.016-.846.409-1.057.438-.242.619.211.83.453a39.979 39.979 0 011.541 2.037c.333.468.635.453 1.028.046.83-.846 1.571-1.766 2.553-2.445.62-.423 1.103-.348 1.39.21.06.137.09.257.12.348zM19.951 27.348c.287-.302.544-.619.846-.92.529-.529 1.148-.906 1.904-.997.393-.045.755.03.997.393.196.317.151.634-.045.92-.227.363-.544.423-.967.332-1.133-.241-1.858.408-2.418 1.283-.664 1.057-.951 2.264-1.208 3.456-.106.514-.197 1.042-.302 1.555-.046.226.06.559-.302.604-.318.045-.59-.09-.786-.362-.317-.438-.317-.951-.242-1.45.151-.92.317-1.826.514-2.731.257-1.147.574-2.28.861-3.426.075-.332.196-.559.604-.513.363.045.514.271.544.618.046.408.015.8 0 1.238zM23.803 33.098a57.06 57.06 0 011.616-6.852.999.999 0 01.393-.543c.212-.151.453-.227.71-.121.287.12.302.392.272.649-.075.468-.15.95-.287 1.388-.559 1.736-.861 3.517-.982 5.328-.015.151-.015.302-.06.438-.197.558-.635.679-1.149.604-.513-.06-.483-.483-.513-.89zM26.024 22.865c.06-.452.076-.86.287-1.207.257-.408.635-.589 1.088-.438.469.151.438.544.393.936-.045.408-.211.77-.453 1.102-.227.317-.514.619-.922.513-.453-.12-.347-.589-.393-.906z" fill="#fff"/></svg>