<svg width="140" height="140" fill="none" xmlns="http://www.w3.org/2000/svg" viewBox="0 0 140 140"><path d="M0 70C0 22.226 25.657 0 70 0s70 22.226 70 70-25.657 70-70 70S0 117.774 0 70z" fill="#F5F5F5"/><mask id="a" maskUnits="userSpaceOnUse" x="0" y="0" width="140" height="140"><path d="M0 70C0 22.226 25.657 0 70 0s70 22.226 70 70-25.657 70-70 70S0 117.774 0 70z" fill="#019BF2"/></mask><g mask="url(#a)"><path d="M124.844 45.309s-.705 3.515.038 4.653c.736 1.142 3.589 2.962 3.589 2.962s-3.047-.873-4.653.031c-1.605.91-2.963 3.59-2.963 3.59s1.08-3.248-.031-4.653c-1.115-1.405-3.589-2.963-3.589-2.963s3.273.822 4.657-.03c1.378-.85 2.952-3.59 2.952-3.59zM68.102 43.953s-.478 2.38.025 3.149c.498.774 2.43 2.007 2.43 2.007s-2.062-.592-3.148.02c-1.087.617-2.007 2.432-2.007 2.432s.73-2.2-.02-3.15c-.756-.951-2.432-2.006-2.432-2.006s2.216.556 3.153-.02c.933-.574 1.999-2.432 1.999-2.432zM112.135 69.162s.858 1.788 1.574 2.05c.704.263 2.576.108 2.576.108s-1.632.631-2.038 1.574c-.405.942-.107 2.576-.107 2.576s-.609-1.8-1.575-2.038c-.966-.25-2.576-.107-2.576-.107s1.717-.726 2.051-1.575c.31-.848.095-2.588.095-2.588zM65.752 21.057s.859 1.787 1.574 2.05c.704.263 2.576.108 2.576.108s-1.632.63-2.038 1.574c-.405.941-.107 2.576-.107 2.576s-.609-1.8-1.575-2.038c-.966-.25-2.576-.108-2.576-.108s1.718-.726 2.05-1.574c.311-.848.096-2.588.096-2.588zM79.011 38.428s7.136.994 8.791 3.16c1.678 2.164 3.225 8.77 3.225 8.77s.377-6.362 3.16-8.791c2.782-2.429 8.77-3.225 8.77-3.225s-6.869-.11-8.814-3.16c-1.922-3.047-3.225-8.77-3.225-8.77s-.619 6.736-3.16 8.791c-2.497 2.054-8.747 3.225-8.747 3.225zM109.989 34.776s2.158.3 2.659.956c.507.655.976 2.652.976 2.652s.114-1.924.956-2.659c.842-.734 2.653-.976 2.653-.976s-2.078-.033-2.667-.956c-.582-.923-.977-2.652-.977-2.652s-.186 2.038-.956 2.658c-.753.623-2.644.977-2.644.977zM44.034 38.393s1.285.178 1.583.569c.302.388.581 1.578.581 1.578s.069-1.144.57-1.583c.5-.436 1.578-.58 1.578-.58s-1.237-.022-1.587-.57c-.346-.548-.581-1.579-.581-1.579s-.112 1.213-.57 1.583c-.448.37-1.574.582-1.574.582z" fill="#019BF2"/><path d="M57.927 108.795s-5.576 1.173-9.35-5.154c-3.773-6.327-6.223-9.199-2.679-17.19 3.544-7.993.687-17.208.066-22.556-.62-5.348-4.104-14.727-6.08-16.703 0 0-5.857-5.176 1.063-3.875 7.432.917 13.283 8.667 16.854 21.943 0 0 .767 4.602 5.408 3.931 4.64-.67 12.726-4.736 19.611-7.595 6.168-2.561 23.234-9.333 26.838-10.024 0 0 5.032-1.448 6.195-.287 1.299 1.299-5.62 6.074-13.69 9.96-8.071 3.887-11.303 5.838-11.303 5.838s1.529-1.092 5.516-1.225c3.987-.13 3.008 3.02-1.237 6.387l-2.68 2.18c2.487-.804 13.44-2.761 3.07 6.656l-3.09 2.657s6.618-3.894 7.998-1.492-4.388 9.449-10.251 13.144c-5.864 3.695-17.334 8.764-22.819 10.434-5.482 1.669-9.44 2.971-9.44 2.971z" fill="#F8CCCC"/><path d="M44.864 89.154l-19.56 8.611s-2.284 21.027 18.325 32.457l9.192-12.802s4.084-5.253 8.245-9.637c.002.002-11.545-10.055-16.202-18.629z" fill="#F8CCCC"/><path opacity=".1" d="M31.606 120.169l26.25-16.73s29.098-3.047 42.763-19.958c0 0-.215 1.22-.815 2.226-.6 1.005-2.1 3.78-6.132 7.098-4.033 3.319-7.856 5.073-7.856 5.073s-11.884 6.588-24.75 9.904c0 0-4.559 4.703-10.217 12.383l-9.515 12.856-9.728-12.852z" fill="#000"/><path d="M-56.284 189.677c11.375 19.016 36.08 22.798 50.724 7.779 14.408-14.776 32.275-34.24 49.09-55.693 7.526-9.602 8.358-23.408 2.215-34.665l-6.747-15.362-126.446 52.51" fill="#019BF2"/><path opacity=".1" d="M47.238 110.209l-98.853 85.689s21.41 23.898 45.055 2.538c0 0 20.187-21.093 27.653-29.726 7.467-8.634 20.96-23.904 23.48-28.373 0 0 3.56-4.722 4.587-10.825 0 0 1.813-8.296-.622-15.604-.31-1.303-1.3-3.699-1.3-3.699zM97.594 73.709s1.9 1.734-1.692 5.114c-3.592 3.381-12.784 9.615-12.784 9.615l9.784-4.957s5.801-4.836 6.689-7.089c0 .002 1.531-2.515-1.997-2.683zM96.695 65.857s4.013.977-3.33 6.735l-8.662 6.18 7.759-4.345s3.945-2.938 4.944-4.289c0 0 .89-.906 1.304-1.968.414-1.063.335-2.304-2.015-2.313zM115.975 51.47s-2.129 1.943-5.299 3.563c-3.169 1.62-29.705 15.058-29.705 15.058L91.52 66.7l8.401-4.367 4.488-2.198s5.766-2.687 8.056-4.822c.002.002 3.947-2.642 3.509-3.842zM37.726 44.569s7.957-.747 12.606 8.197c4.649 8.944 5.141 20.495 7.96 21.411 2.817.917 21.315-11.207 21.315-11.207l-8.166 3.55s-2.557 1.039-3.53 1.376c-.972.337-4.87 1.777-6.84 1.204 0 0-2.019-.356-3-2.921 0 0-1.16-5.096-2.925-8.808 0 0-1.502-4.106-3.618-6.748 0 0-1.809-2.787-4.012-4.413 0 0-2.183-1.759-3.912-2.25 0 0-1.293-.517-3.176-.73 0 0-1.36-.25-2.168-.03-.944.248-.724.93-.534 1.369z" fill="#000"/></g></svg>