<svg width="140" height="140" fill="none" xmlns="http://www.w3.org/2000/svg" viewBox="0 0 140 140"><path d="M0 70C0 22.226 25.657 0 70 0s70 22.226 70 70-25.657 70-70 70S0 117.774 0 70z" fill="#F5F5F5"/><mask id="a" maskUnits="userSpaceOnUse" x="0" y="0" width="140" height="140"><path d="M0 70C0 22.226 25.657 0 70 0s70 22.226 70 70-25.657 70-70 70S0 117.774 0 70z" fill="#F5F5F5"/></mask><g mask="url(#a)"><path opacity=".5" d="M29.58 40.547L3.85 109.968c-3.432 9.258 3.996 18.927 13.813 17.964l75.141-7.386c10.531-1.032 15.734-13.356 9.13-21.65L52.522 36.86c-6.467-8.13-19.331-6.066-22.942 3.686z" fill="#D3D4D3"/><path d="M56.133 20.973l-18.96 72.034c-2.513 9.533 5.793 18.418 15.459 16.534l73.549-15.75c10.338-2.021 14.375-13.3 7.125-20.948L78.732 15.182c-7.195-7.607-19.922-4.333-22.6 5.79z" fill="#019BF2"/><path d="M55.996 104.026c-2.732.536-5.588-.427-7.62-2.573-2.032-2.145-2.828-5.034-2.114-7.716l16.709-73.92c.7-2.682 2.76-4.607 5.505-5.13 2.732-.537 5.588.426 7.62 2.572l54.643 59.174c2.032 2.146 2.829 5.034 2.115 7.717-.7 2.682-2.76 4.607-5.506 5.13l-71.352 14.746z" fill="#fff"/><path d="M83.331 74.618c2.746-.605 4.503-3.453 4.078-6.644l-2.925-22.173-.04-.248c-.77-6.753-2.39-9.133-2.39-9.133l-.014.014c-1.263-2.545-3.871-4.072-6.398-3.521l-4.681 1.031c-2.375.523-3.94 2.71-4.105 5.296h-.014s-.48 2.64 2.156 9.972l7.606 21.142c1.07 3.026 3.967 4.87 6.727 4.264z" fill="#019BF2"/><path opacity=".1" d="M70.947 11.137s-10.38.358-12.713 10.894C46.5 71 43.29 81.791 42.75 84c-.959 3.791-10.25 25.747 8.55 25.747 0 0-10.709 1.155-14.072-9.697 0 0-1.566-2.958.672-9.725 1.6-6.825 7.071-26.836 7.071-26.836L55.859 22.14s1.304-7.138 7.578-9.862c-.027-.027 3.048-1.76 7.51-1.142zM77.483 32.857s-7.977 1.087-7.318 7.001c.66 5.915 6.22 28.776 11.876 34.869 0 0-2.183.248-4.38-2.435 0 0-.562-.687-.988-1.733-.426-1.045-2.362-6.56-2.362-6.56l-5.34-14.815s-1.977-5.09-2.183-8.927c0 0-.165-2.792 1.304-4.484 0 0 .769-1.266 2.636-1.788l2.568-.578 2.594-.564c-.013.014.934-.138 1.593.014z" fill="#000"/><path d="M78.667 85.869c-.737-5.47 1.854-8.411 6.923-9.098 5.069-.687 8.344 1.46 9.081 6.929.736 5.469-1.854 8.41-6.923 9.098-5.069.687-8.345-1.46-9.081-6.93z" fill="#019BF2"/><path d="M81.866 83.686c-.054-5.588 6.52-6.323 9.671-5.973-3.166-1.902-8.596-1.167-11.184 1.223-2.588 2.391-3.14 7.087-.575 10.861 2.54 3.736 6.745 3.263 9.114 2.845-3.754.217-6.959-1.971-7.026-8.956z" fill="#018CDA"/></g></svg>